<?xml version="1.0" encoding="UTF-8"?>
  <svg xmlns="http://www.w3.org/2000/svg" viewBox="0 0 1251 192">
    <g fill="#000" fill-rule="evenodd">
      <path d="M142.336 62.96c-.853-.427-1.493-.427-1.92 0l-20.16 17.92c.64-2.56 1.067-5.333 1.28-8.32.213-2.987.32-6.187.32-9.6 0-16-4.16-28.16-12.48-36.48-8.32-8.32-20.16-12.48-35.52-12.48l-38.08.32v142.4l-35.2 32c-.64.64-.747 1.28-.32 1.92.213.213.533.32.96.32.64 0 .96-.107.96-.32L142.016 65.2c.64-.64.747-1.387.32-2.24zM42 108.32v-88L74.96 20c13.013.64 22.933 4.64 29.76 12 6.827 7.36 10.24 17.867 10.24 31.52 0 5.12-.373 9.867-1.12 14.24-.747 4.373-1.973 8.373-3.68 12L91.6 106.4c-2.133.427-4.427.853-6.88 1.28-2.453.427-4.853.64-7.2.64H42zm0 42.48v-36.16h27.84c2.56 0 4.96-.053 7.2-.16 2.24-.107 4.213-.267 5.92-.48L42 150.8zM141.32 190l-.32.32.32.32c.427 0 .64-.107.64-.32-.213-.213-.427-.32-.64-.32zM141.32 174c-.213 0-.32.213-.32.64 0 .427.107.64.32.64.427 0 .64-.213.64-.64 0-.427-.213-.64-.64-.64zM140.64 158c-.427 0-.64.32-.64.96 0 .64.213.96.64.96.64 0 .96-.32.96-.96 0-.64-.32-.96-.96-.96zM140.96 142c-.64 0-.96.32-.96.96 0 .64.32.96.96.96.853 0 1.28-.32 1.28-.96 0-.64-.427-.96-1.28-.96zM141.28 126c-.853 0-1.28.427-1.28 1.28s.427 1.28 1.28 1.28 1.28-.427 1.28-1.28-.427-1.28-1.28-1.28zM141.28 110c-.853 0-1.28.533-1.28 1.6 0 .853.427 1.28 1.28 1.28 1.067 0 1.6-.427 1.6-1.28 0-1.067-.533-1.6-1.6-1.6zM140.6 94c-1.067 0-1.6.64-1.6 1.92 0 1.067.533 1.6 1.6 1.6 1.28 0 1.92-.533 1.92-1.6 0-1.28-.64-1.92-1.92-1.92zM140.92 78c-1.28 0-1.92.747-1.92 2.24 0 1.28.64 1.92 1.92 1.92 1.493 0 2.24-.64 2.24-1.92 0-1.493-.747-2.24-2.24-2.24zM125.32 190l-.32.32c0 .213.107.32.32.32.213 0 .32-.107.32-.32 0-.213-.107-.32-.32-.32zM125.64 174c-.427 0-.64.213-.64.64 0 .427.213.64.64.64.427 0 .64-.213.64-.64 0-.427-.213-.64-.64-.64zM125.96 158c-.64 0-.96.32-.96.96 0 .64.32.96.96.96.427 0 .64-.32.64-.96 0-.64-.213-.96-.64-.96zM125.96 142c-.64 0-.96.32-.96.96 0 .64.32.96.96.96.64 0 .96-.32.96-.96 0-.64-.32-.96-.96-.96zM125.28 126c-.853 0-1.28.427-1.28 1.28s.427 1.28 1.28 1.28 1.28-.427 1.28-1.28-.427-1.28-1.28-1.28zM125.6 110c-1.067 0-1.6.533-1.6 1.6 0 .853.533 1.28 1.6 1.28 1.067 0 1.6-.427 1.6-1.28 0-1.067-.533-1.6-1.6-1.6zM125.6 94c-1.067 0-1.6.64-1.6 1.92 0 1.067.533 1.6 1.6 1.6 1.067 0 1.6-.533 1.6-1.6 0-1.28-.533-1.92-1.6-1.92zM110.32 190l-.32.32.32.32c.213 0 .32-.107.32-.32 0-.213-.107-.32-.32-.32zM110.32 174c-.213 0-.32.213-.32.64 0 .427.107.64.32.64.427 0 .64-.213.64-.64 0-.427-.213-.64-.64-.64zM109.64 158c-.427 0-.64.32-.64.96 0 .64.213.96.64.96.64 0 .96-.32.96-.96 0-.64-.32-.96-.96-.96zM109.96 142c-.64 0-.96.32-.96.96 0 .64.32.96.96.96.853 0 1.28-.32 1.28-.96 0-.64-.427-.96-1.28-.96zM110.28 126c-.853 0-1.28.427-1.28 1.28s.427 1.28 1.28 1.28 1.28-.427 1.28-1.28-.427-1.28-1.28-1.28zM110.28 110c-.853 0-1.28.533-1.28 1.6 0 .853.427 1.28 1.28 1.28 1.067 0 1.6-.427 1.6-1.28 0-1.067-.533-1.6-1.6-1.6zM94.64 190.32l-.32-.32-.32.32c0 .213.107.32.32.32.213 0 .32-.107.32-.32zM94.64 174c-.427 0-.64.213-.64.64 0 .427.213.64.64.64.427 0 .64-.213.64-.64 0-.427-.213-.64-.64-.64zM94.96 158c-.64 0-.96.32-.96.96 0 .64.32.96.96.96.427 0 .64-.32.64-.96 0-.64-.213-.96-.64-.96zM94.28 142c-.853 0-1.28.32-1.28.96 0 .64.427.96 1.28.96.64 0 .96-.32.96-.96 0-.64-.32-.96-.96-.96zM94.28 126c-.853 0-1.28.427-1.28 1.28s.427 1.28 1.28 1.28 1.28-.427 1.28-1.28-.427-1.28-1.28-1.28zM79.32 190l-.32.32.32.32c.213 0 .32-.107.32-.32 0-.213-.107-.32-.32-.32zM78.64 174c-.427 0-.64.213-.64.64 0 .427.213.64.64.64.427 0 .64-.213.64-.64 0-.427-.213-.64-.64-.64zM78.64 158c-.427 0-.64.32-.64.96 0 .64.213.96.64.96.64 0 .96-.32.96-.96 0-.64-.32-.96-.96-.96zM78.96 142c-.64 0-.96.32-.96.96 0 .64.32.96.96.96.853 0 1.28-.32 1.28-.96 0-.64-.427-.96-1.28-.96zM63.64 190.32l-.32-.32-.32.32c0 .213.107.32.32.32.213 0 .32-.107.32-.32zM63.64 174c-.427 0-.64.213-.64.64 0 .427.213.64.64.64.213 0 .32-.213.32-.64 0-.427-.107-.64-.32-.64zM63.96 158c-.64 0-.96.32-.96.96 0 .64.32.96.96.96.427 0 .64-.32.64-.96 0-.64-.213-.96-.64-.96zM48.32 190l-.32.32c0 .213.107.32.32.32.213 0 .32-.107.32-.32 0-.213-.107-.32-.32-.32zM47.64 174c-.427 0-.64.213-.64.64 0 .427.213.64.64.64.427 0 .64-.213.64-.64 0-.427-.213-.64-.64-.64zM47.64 158c-.427 0-.64.32-.64.96 0 .64.213.96.64.96.64 0 .96-.32.96-.96 0-.64-.32-.96-.96-.96zM32.96 190.32l-.32-.32-.64.32c0 .213.213.32.64.32.213 0 .32-.107.32-.32zM32.64 174c-.427 0-.64.213-.64.64 0 .427.213.64.64.64.213 0 .32-.213.32-.64 0-.427-.107-.64-.32-.64zM17.32 190l-.32.32c0 .213.107.32.32.32.213 0 .32-.107.32-.32 0-.213-.107-.32-.32-.32z" />
      <path d="M231.24 13c-18.987 0-34.293 4.853-45.92 14.56-11.627 9.707-19.253 23.84-22.88 42.4l-20.48-7.36c-1.067 0-1.6.32-1.6.96-.64 1.067-.427 1.6.64 1.6l142.4 50.56c.213-.427.32-.853.32-1.28 0-.427.107-.853.32-1.28L168.84 72.2c2.987-17.28 9.76-30.347 20.32-39.2 10.56-8.853 24.48-13.28 41.76-13.28 20.267 0 35.733 6.24 46.4 18.72 10.667 12.48 16 30.667 16 54.56 0 25.387-5.6 44.8-16.8 58.24-11.2 13.44-27.253 20.16-48.16 20.16-20.053 0-35.36-6.507-45.92-19.52-10.56-13.013-15.84-31.787-15.84-56.32 0-1.92.053-3.733.16-5.44.107-1.707.267-3.413.48-5.12l-6.72-2.24c-.213 2.133-.373 4.267-.48 6.4-.107 2.133-.16 4.373-.16 6.72 0 26.24 5.92 46.4 17.76 60.48 11.84 14.08 28.747 21.12 50.72 21.12 23.04 0 40.693-7.307 52.96-21.92 12.267-14.613 18.4-35.68 18.4-63.2 0-25.387-5.867-44.96-17.6-58.72C270.387 19.88 253.427 13 231.24 13zM319.08 125.8l-13.44-4.8c-.427 1.28-.64 2.133-.64 2.56l13.12 4.8h.32c.853 0 1.28-.32 1.28-.96.427-.64.213-1.173-.64-1.6zM318.32 190l-.32.32.32.32c.427 0 .64-.107.64-.32-.213-.213-.427-.32-.64-.32zM318.32 174c-.213 0-.32.213-.32.64 0 .427.107.64.32.64.427 0 .64-.213.64-.64 0-.427-.213-.64-.64-.64zM317.64 158c-.427 0-.64.32-.64.96 0 .64.213.96.64.96.64 0 .96-.32.96-.96 0-.64-.32-.96-.96-.96zM317.96 142c-.64 0-.96.32-.96.96 0 .64.32.96.96.96.853 0 1.28-.32 1.28-.96 0-.64-.427-.96-1.28-.96zM302.32 190l-.32.32.32.32c.213 0 .32-.107.32-.32 0-.213-.107-.32-.32-.32zM301.64 174c-.427 0-.64.213-.64.64 0 .427.213.64.64.64.427 0 .64-.213.64-.64 0-.427-.213-.64-.64-.64zM301.64 158c-.427 0-.64.32-.64.96 0 .64.213.96.64.96.64 0 .96-.32.96-.96 0-.64-.32-.96-.96-.96zM301.96 142c-.64 0-.96.32-.96.96 0 .64.32.96.96.96.64 0 .96-.32.96-.96 0-.64-.32-.96-.96-.96zM286.32 190l-.32.32c0 .213.107.32.32.32.213 0 .32-.107.32-.32 0-.213-.107-.32-.32-.32zM285.64 174c-.427 0-.64.213-.64.64 0 .427.213.64.64.64.427 0 .64-.213.64-.64 0-.427-.213-.64-.64-.64zM270.64 190.32l-.32-.32-.32.32c0 .213.107.32.32.32.213 0 .32-.107.32-.32z" />
      <path d="M270.28 142c-.853 0-1.28.32-1.28.96 0 .64.427.96 1.28.96.64 0 .96-.32.96-.96 0-.64-.32-.96-.96-.96zM270.28 126c-.853 0-1.28.427-1.28 1.28s.427 1.28 1.28 1.28 1.28-.427 1.28-1.28-.427-1.28-1.28-1.28zM253.32 190l-.32.32.32.32c.213 0 .32-.107.32-.32 0-.213-.107-.32-.32-.32zM253.96 142c-.64 0-.96.32-.96.96 0 .64.32.96.96.96.853 0 1.28-.32 1.28-.96 0-.64-.427-.96-1.28-.96zM253.28 126c-.853 0-1.28.427-1.28 1.28s.427 1.28 1.28 1.28 1.28-.427 1.28-1.28-.427-1.28-1.28-1.28zM237.32 190l-.32.32c0 .213.107.32.32.32.213 0 .32-.107.32-.32 0-.213-.107-.32-.32-.32zM237.64 158c-.427 0-.64.32-.64.96 0 .64.213.96.64.96.64 0 .96-.32.96-.96 0-.64-.32-.96-.96-.96zM237.96 142c-.64 0-.96.32-.96.96 0 .64.32.96.96.96.64 0 .96-.32.96-.96 0-.64-.32-.96-.96-.96zM237.28 126c-.853 0-1.28.427-1.28 1.28s.427 1.28 1.28 1.28 1.28-.427 1.28-1.28-.427-1.28-1.28-1.28zM221.64 190.32l-.32-.32-.32.32c0 .213.107.32.32.32.213 0 .32-.107.32-.32zM221.96 158c-.64 0-.96.32-.96.96 0 .64.32.96.96.96.427 0 .64-.32.64-.96 0-.64-.213-.96-.64-.96zM221.96 142c-.64 0-.96.32-.96.96 0 .64.32.96.96.96.64 0 .96-.32.96-.96 0-.64-.32-.96-.96-.96zM221.28 126c-.853 0-1.28.427-1.28 1.28s.427 1.28 1.28 1.28 1.28-.427 1.28-1.28-.427-1.28-1.28-1.28zM221.6 110c-1.067 0-1.6.533-1.6 1.6 0 .853.533 1.28 1.6 1.28 1.067 0 1.6-.427 1.6-1.28 0-1.067-.533-1.6-1.6-1.6zM205.96 190.32l-.32-.32-.64.32c0 .213.213.32.64.32.213 0 .32-.107.32-.32zM205.28 142c-.853 0-1.28.32-1.28.96 0 .64.427.96 1.28.96.64 0 .96-.32.96-.96 0-.64-.32-.96-.96-.96zM205.28 126c-.853 0-1.28.427-1.28 1.28s.427 1.28 1.28 1.28 1.28-.427 1.28-1.28-.427-1.28-1.28-1.28zM205.6 110c-1.067 0-1.6.533-1.6 1.6 0 .853.533 1.28 1.6 1.28.853 0 1.28-.427 1.28-1.28 0-1.067-.427-1.6-1.28-1.6zM189.32 190l-.32.32.32.32c.213 0 .32-.107.32-.32 0-.213-.107-.32-.32-.32zM188.96 142c-.64 0-.96.32-.96.96 0 .64.32.96.96.96.853 0 1.28-.32 1.28-.96 0-.64-.427-.96-1.28-.96zM189.28 126c-.853 0-1.28.427-1.28 1.28s.427 1.28 1.28 1.28 1.28-.427 1.28-1.28-.427-1.28-1.28-1.28zM189.28 110c-.853 0-1.28.533-1.28 1.6 0 .853.427 1.28 1.28 1.28 1.067 0 1.6-.427 1.6-1.28 0-1.067-.533-1.6-1.6-1.6zM189.6 94c-1.067 0-1.6.64-1.6 1.92 0 1.067.533 1.6 1.6 1.6 1.28 0 1.92-.533 1.92-1.6 0-1.28-.64-1.92-1.92-1.92zM173.32 190l-.32.32c0 .213.107.32.32.32.213 0 .32-.107.32-.32 0-.213-.107-.32-.32-.32zM173.64 174c-.427 0-.64.213-.64.64 0 .427.213.64.64.64.427 0 .64-.213.64-.64 0-.427-.213-.64-.64-.64zM157.64 190.32l-.32-.32-.32.32c0 .213.107.32.32.32.213 0 .32-.107.32-.32zM157.64 174c-.427 0-.64.213-.64.64 0 .427.213.64.64.64.213 0 .32-.213.32-.64 0-.427-.107-.64-.32-.64zM156.96 158c-.64 0-.96.32-.96.96 0 .64.32.96.96.96.427 0 .64-.32.64-.96 0-.64-.213-.96-.64-.96zM157.28 142c-.853 0-1.28.32-1.28.96 0 .64.427.96 1.28.96.64 0 .96-.32.96-.96 0-.64-.32-.96-.96-.96zM434.32 190l-.32.32.32.32c.427 0 .64-.107.64-.32-.213-.213-.427-.32-.64-.32zM434.64 158c-.427 0-.64.32-.64.96 0 .64.213.96.64.96.64 0 .96-.32.96-.96 0-.64-.32-.96-.96-.96zM434.96 142c-.64 0-.96.32-.96.96 0 .64.32.96.96.96.853 0 1.28-.32 1.28-.96 0-.64-.427-.96-1.28-.96zM418.32 190l-.32.32.32.32c.213 0 .32-.107.32-.32 0-.213-.107-.32-.32-.32zM418.64 158c-.427 0-.64.32-.64.96 0 .64.213.96.64.96.64 0 .96-.32.96-.96 0-.64-.32-.96-.96-.96zM417.96 142c-.64 0-.96.32-.96.96 0 .64.32.96.96.96.853 0 1.28-.32 1.28-.96 0-.64-.427-.96-1.28-.96zM401.32 190l-.32.32.32.32c.213 0 .32-.107.32-.32 0-.213-.107-.32-.32-.32zM401.64 158c-.427 0-.64.32-.64.96 0 .64.213.96.64.96.64 0 .96-.32.96-.96 0-.64-.32-.96-.96-.96zM401.96 142c-.64 0-.96.32-.96.96 0 .64.32.96.96.96.64 0 .96-.32.96-.96 0-.64-.32-.96-.96-.96zM385.32 190l-.32.32c0 .213.107.32.32.32.213 0 .32-.107.32-.32 0-.213-.107-.32-.32-.32zM384.96 158c-.64 0-.96.32-.96.96 0 .64.32.96.96.96.64 0 .96-.32.96-.96 0-.64-.32-.96-.96-.96zM384.96 142c-.64 0-.96.32-.96.96 0 .64.32.96.96.96.64 0 .96-.32.96-.96 0-.64-.32-.96-.96-.96zM368.64 190.32l-.32-.32-.32.32c0 .213.107.32.32.32.213 0 .32-.107.32-.32zM351.64 190.32l-.32-.32-.32.32c0 .213.107.32.32.32.213 0 .32-.107.32-.32zM334.96 190.32l-.32-.32-.64.32c0 .213.213.32.64.32.213 0 .32-.107.32-.32zM334.64 174c-.427 0-.64.213-.64.64 0 .427.213.64.64.64.213 0 .32-.213.32-.64 0-.427-.107-.64-.32-.64zM334.96 158c-.64 0-.96.32-.96.96 0 .64.32.96.96.96.427 0 .64-.32.64-.96 0-.64-.213-.96-.64-.96zM335.28 142c-.853 0-1.28.32-1.28.96 0 .64.427.96 1.28.96.64 0 .96-.32.96-.96 0-.64-.32-.96-.96-.96zM433.08 126.36h-74.56V15h-6.4v111.36h-35.84c-.853 0-1.28.427-1.28 1.28s.427 1.28 1.28 1.28h116.8c.853 0 1.28-.427 1.28-1.28s-.427-1.28-1.28-1.28z" />
      <path d="M424.96 169.68H358.4V138H352v38.08h72.64l.96-5.12-.64-1.28zM518.32 190l-.32.32.32.32c.213 0 .32-.107.32-.32 0-.213-.107-.32-.32-.32zM501.32 190l-.32.32c0 .213.107.32.32.32.213 0 .32-.107.32-.32 0-.213-.107-.32-.32-.32zM485.64 190.32l-.32-.32-.32.32c0 .213.107.32.32.32.213 0 .32-.107.32-.32zM468.64 190.32l-.32-.32-.32.32c0 .213.107.32.32.32.213 0 .32-.107.32-.32zM451.96 190.32l-.32-.32-.64.32c0 .213.213.32.64.32.213 0 .32-.107.32-.32zM451.64 174c-.427 0-.64.213-.64.64 0 .427.213.64.64.64.213 0 .32-.213.32-.64 0-.427-.107-.64-.32-.64zM451.96 158c-.64 0-.96.32-.96.96 0 .64.32.96.96.96.427 0 .64-.32.64-.96 0-.64-.213-.96-.64-.96zM491.4 170.52h-16V15H469v161.92h33.92l-11.52-6.4z" />
      <path d="M551.8 188.8l-22.72-12.16h12.16l.96-5.12-.64-1.28h-24L483 152v2.88l67.52 36.48h.64c.64 0 .96-.107.96-.32l.32-.32c.213-.64 0-1.28-.64-1.92zM434.256 126.853c-.427.854-.32 1.387.32 1.6l26.88 14.72v-3.2l-25.6-13.76c-.64-.426-1.173-.213-1.6.64zM627.32 190l-.32.32.32.32c.427 0 .64-.107.64-.32-.213-.213-.427-.32-.64-.32zM627.32 174c-.213 0-.32.213-.32.64 0 .427.107.64.32.64.427 0 .64-.213.64-.64 0-.427-.213-.64-.64-.64zM627.64 158c-.427 0-.64.32-.64.96 0 .64.213.96.64.96.64 0 .96-.32.96-.96 0-.64-.32-.96-.96-.96zM626.96 142c-.64 0-.96.32-.96.96 0 .64.32.96.96.96.853 0 1.28-.32 1.28-.96 0-.64-.427-.96-1.28-.96zM627.28 126c-.853 0-1.28.427-1.28 1.28s.427 1.28 1.28 1.28 1.28-.427 1.28-1.28-.427-1.28-1.28-1.28zM627.28 110c-.853 0-1.28.533-1.28 1.6 0 .853.427 1.28 1.28 1.28 1.067 0 1.6-.427 1.6-1.28 0-1.067-.533-1.6-1.6-1.6zM627.6 94c-1.067 0-1.6.64-1.6 1.92 0 1.067.533 1.6 1.6 1.6 1.28 0 1.92-.533 1.92-1.6 0-1.28-.64-1.92-1.92-1.92zM627.92 78c-1.28 0-1.92.747-1.92 2.24 0 1.28.64 1.92 1.92 1.92 1.493 0 2.24-.64 2.24-1.92 0-1.493-.747-2.24-2.24-2.24zM612.32 190l-.32.32c0 .213.107.32.32.32.213 0 .32-.107.32-.32 0-.213-.107-.32-.32-.32zM612.64 174c-.427 0-.64.213-.64.64 0 .427.213.64.64.64.427 0 .64-.213.64-.64 0-.427-.213-.64-.64-.64zM611.96 158c-.64 0-.96.32-.96.96 0 .64.32.96.96.96.64 0 .96-.32.96-.96 0-.64-.32-.96-.96-.96zM611.96 142c-.64 0-.96.32-.96.96 0 .64.32.96.96.96.64 0 .96-.32.96-.96 0-.64-.32-.96-.96-.96zM612.28 126c-.853 0-1.28.427-1.28 1.28s.427 1.28 1.28 1.28 1.28-.427 1.28-1.28-.427-1.28-1.28-1.28zM612.6 110c-1.067 0-1.6.533-1.6 1.6 0 .853.533 1.28 1.6 1.28 1.067 0 1.6-.427 1.6-1.28 0-1.067-.533-1.6-1.6-1.6zM597.64 190.32l-.32-.32-.32.32c0 .213.107.32.32.32.213 0 .32-.107.32-.32zM582.32 190l-.32.32.32.32c.213 0 .32-.107.32-.32 0-.213-.107-.32-.32-.32zM567.64 190.32l-.32-.32-.32.32c0 .213.107.32.32.32.213 0 .32-.107.32-.32zM566.64 174c-.427 0-.64.213-.64.64 0 .427.213.64.64.64.427 0 .64-.213.64-.64 0-.427-.213-.64-.64-.64zM586 15v161.92h6.4V15H586zM628.84 63.57c-.853-.854-1.493-.748-1.92.32L601 106.45v5.44l28.16-46.4c.427-.854.32-1.494-.32-1.92z" />
      <path d="M550.89 191h.64c.64 0 1.066-.213 1.28-.64l25.28-41.92V143l-27.52 46.08c-.854.853-.748 1.493.32 1.92zM667.8 75h-9.28c3.2 4.053 7.253 7.573 12.16 10.56s10.027 5.76 15.36 8.32c5.333 2.56 10.613 5.12 15.84 7.68 5.227 2.56 9.92 5.387 14.08 8.48 4.16 3.093 7.573 6.613 10.24 10.56s4 8.693 4 14.24c0 4.48-1.013 8.907-3.04 13.28-2.027 4.373-4.853 8.213-8.48 11.52-3.627 3.307-8.107 6.027-13.44 8.16s-11.307 3.2-17.92 3.2c-6.187 0-12.747-1.013-19.68-3.04s-13.173-5.173-18.72-9.44l-1.6.32-.32 6.4c5.76 4.053 12.267 7.04 19.52 8.96 7.253 1.92 14.187 2.88 20.8 2.88 7.253 0 13.92-1.173 20-3.52s11.253-5.44 15.52-9.28c4.267-3.84 7.627-8.32 10.08-13.44 2.453-5.12 3.68-10.56 3.68-16.32 0-9.173-2.56-16.587-7.68-22.24-5.12-5.653-11.307-10.453-18.56-14.4-7.253-3.947-14.827-7.627-22.72-11.04-7.893-3.413-14.507-7.36-19.84-11.84zM756.56 62.96h-97.92c-1.067-2.56-1.6-5.227-1.6-8 0-4.053.907-8.16 2.72-12.32 1.813-4.16 4.427-7.893 7.84-11.2 3.413-3.307 7.627-5.973 12.64-8 5.013-2.027 10.827-3.04 17.44-3.04 4.267 0 9.013.533 14.24 1.6 5.227 1.067 10.507 2.88 15.84 5.44l1.92-.32 1.28-5.76c-6.187-2.987-12.107-4.96-17.76-5.92-5.653-.96-10.613-1.44-14.88-1.44-7.04 0-13.493 1.067-19.36 3.2-5.867 2.133-10.88 5.013-15.04 8.64-4.16 3.627-7.413 7.893-9.76 12.8-2.347 4.907-3.52 10.133-3.52 15.68 0 1.707.107 3.253.32 4.64.213 1.387.533 2.72.96 4h-24.64c-.853 0-1.28.427-1.28 1.28s.427 1.28 1.28 1.28h129.28c.853 0 1.28-.427 1.28-1.28s-.427-1.28-1.28-1.28zM756.32 190l-.32.32.32.32c.427 0 .64-.107.64-.32-.213-.213-.427-.32-.64-.32zM756.32 174c-.213 0-.32.213-.32.64 0 .427.107.64.32.64.427 0 .64-.213.64-.64 0-.427-.213-.64-.64-.64zM756.64 158c-.427 0-.64.32-.64.96 0 .64.213.96.64.96.64 0 .96-.32.96-.96 0-.64-.32-.96-.96-.96zM756.96 142c-.64 0-.96.32-.96.96 0 .64.32.96.96.96.853 0 1.28-.32 1.28-.96 0-.64-.427-.96-1.28-.96zM756.28 126c-.853 0-1.28.427-1.28 1.28s.427 1.28 1.28 1.28 1.28-.427 1.28-1.28-.427-1.28-1.28-1.28zM756.28 110c-.853 0-1.28.533-1.28 1.6 0 .853.427 1.28 1.28 1.28 1.067 0 1.6-.427 1.6-1.28 0-1.067-.533-1.6-1.6-1.6zM756.6 94c-1.067 0-1.6.64-1.6 1.92 0 1.067.533 1.6 1.6 1.6 1.28 0 1.92-.533 1.92-1.6 0-1.28-.64-1.92-1.92-1.92zM756.92 78c-1.28 0-1.92.747-1.92 2.24 0 1.28.64 1.92 1.92 1.92 1.493 0 2.24-.64 2.24-1.92 0-1.493-.747-2.24-2.24-2.24zM740.32 190l-.32.32c0 .213.107.32.32.32.213 0 .32-.107.32-.32 0-.213-.107-.32-.32-.32zM740.64 174c-.427 0-.64.213-.64.64 0 .427.213.64.64.64.427 0 .64-.213.64-.64 0-.427-.213-.64-.64-.64zM740.96 158c-.64 0-.96.32-.96.96 0 .64.32.96.96.96.64 0 .96-.32.96-.96 0-.64-.32-.96-.96-.96zM740.6 110c-1.067 0-1.6.533-1.6 1.6 0 .853.533 1.28 1.6 1.28 1.067 0 1.6-.427 1.6-1.28 0-1.067-.533-1.6-1.6-1.6zM740.6 94c-1.067 0-1.6.64-1.6 1.92 0 1.067.533 1.6 1.6 1.6 1.067 0 1.6-.533 1.6-1.6 0-1.28-.533-1.92-1.6-1.92zM740.92 78c-1.28 0-1.92.747-1.92 2.24 0 1.28.64 1.92 1.92 1.92 1.28 0 1.92-.64 1.92-1.92 0-1.493-.64-2.24-1.92-2.24zM724.32 190l-.32.32.32.32c.427 0 .64-.107.64-.32-.213-.213-.427-.32-.64-.32zM724.6 94c-1.067 0-1.6.64-1.6 1.92 0 1.067.533 1.6 1.6 1.6 1.28 0 1.92-.533 1.92-1.6 0-1.28-.64-1.92-1.92-1.92zM723.92 78c-1.28 0-1.92.747-1.92 2.24 0 1.28.64 1.92 1.92 1.92 1.493 0 2.24-.64 2.24-1.92 0-1.493-.747-2.24-2.24-2.24zM708.32 190l-.32.32c0 .213.107.32.32.32.213 0 .32-.107.32-.32 0-.213-.107-.32-.32-.32z" />
      <path d="M707.96 142c-.64 0-.96.32-.96.96 0 .64.32.96.96.96.64 0 .96-.32.96-.96 0-.64-.32-.96-.96-.96zM708.28 126c-.853 0-1.28.427-1.28 1.28s.427 1.28 1.28 1.28 1.28-.427 1.28-1.28-.427-1.28-1.28-1.28zM707.92 78c-1.28 0-1.92.747-1.92 2.24 0 1.28.64 1.92 1.92 1.92 1.28 0 1.92-.64 1.92-1.92 0-1.493-.64-2.24-1.92-2.24zM692.32 190l-.32.32.32.32c.427 0 .64-.107.64-.32-.213-.213-.427-.32-.64-.32zM691.64 158c-.427 0-.64.32-.64.96 0 .64.213.96.64.96.64 0 .96-.32.96-.96 0-.64-.32-.96-.96-.96zM691.96 142c-.64 0-.96.32-.96.96 0 .64.32.96.96.96.853 0 1.28-.32 1.28-.96 0-.64-.427-.96-1.28-.96zM692.28 126c-.853 0-1.28.427-1.28 1.28s.427 1.28 1.28 1.28 1.28-.427 1.28-1.28-.427-1.28-1.28-1.28zM692.28 110c-.853 0-1.28.533-1.28 1.6 0 .853.427 1.28 1.28 1.28 1.067 0 1.6-.427 1.6-1.28 0-1.067-.533-1.6-1.6-1.6zM676.32 190l-.32.32c0 .213.107.32.32.32.213 0 .32-.107.32-.32 0-.213-.107-.32-.32-.32zM675.96 158c-.64 0-.96.32-.96.96 0 .64.32.96.96.96.64 0 .96-.32.96-.96 0-.64-.32-.96-.96-.96zM675.96 142c-.64 0-.96.32-.96.96 0 .64.32.96.96.96.64 0 .96-.32.96-.96 0-.64-.32-.96-.96-.96zM676.28 126c-.853 0-1.28.427-1.28 1.28s.427 1.28 1.28 1.28 1.28-.427 1.28-1.28-.427-1.28-1.28-1.28zM675.6 110c-1.067 0-1.6.533-1.6 1.6 0 .853.533 1.28 1.6 1.28 1.067 0 1.6-.427 1.6-1.28 0-1.067-.533-1.6-1.6-1.6zM659.32 190l-.32.32.32.32c.427 0 .64-.107.64-.32-.213-.213-.427-.32-.64-.32zM659.96 142c-.64 0-.96.32-.96.96 0 .64.32.96.96.96.853 0 1.28-.32 1.28-.96 0-.64-.427-.96-1.28-.96zM659.28 126c-.853 0-1.28.427-1.28 1.28s.427 1.28 1.28 1.28 1.28-.427 1.28-1.28-.427-1.28-1.28-1.28zM659.28 110c-.853 0-1.28.533-1.28 1.6 0 .853.427 1.28 1.28 1.28 1.067 0 1.6-.427 1.6-1.28 0-1.067-.533-1.6-1.6-1.6zM659.6 94c-1.067 0-1.6.64-1.6 1.92 0 1.067.533 1.6 1.6 1.6 1.28 0 1.92-.533 1.92-1.6 0-1.28-.64-1.92-1.92-1.92zM643.32 190l-.32.32c0 .213.107.32.32.32.213 0 .32-.107.32-.32 0-.213-.107-.32-.32-.32zM643.96 142c-.64 0-.96.32-.96.96 0 .64.32.96.96.96.64 0 .96-.32.96-.96 0-.64-.32-.96-.96-.96zM643.28 126c-.853 0-1.28.427-1.28 1.28s.427 1.28 1.28 1.28 1.28-.427 1.28-1.28-.427-1.28-1.28-1.28zM643.6 110c-1.067 0-1.6.533-1.6 1.6 0 .853.533 1.28 1.6 1.28 1.067 0 1.6-.427 1.6-1.28 0-1.067-.533-1.6-1.6-1.6zM643.6 94c-1.067 0-1.6.64-1.6 1.92 0 1.067.533 1.6 1.6 1.6 1.067 0 1.6-.533 1.6-1.6 0-1.28-.533-1.92-1.6-1.92zM643.92 78c-1.28 0-1.92.747-1.92 2.24 0 1.28.64 1.92 1.92 1.92 1.28 0 1.92-.64 1.92-1.92 0-1.493-.64-2.24-1.92-2.24zM822 46.88V176.8h6.4V44l-6.4 2.88zM895.413.853c-.426-.853-.96-1.066-1.6-.64l-31.68 14.4h-90.56l-.96 5.44.96 1.28 27.52-.32h23.68v11.84l-65.92 30.4c-.853.427-1.066.96-.64 1.6 0 .64.32.96.96.96l.64-.32 136.96-62.72c.854-.426 1.067-1.066.64-1.92zM829 29.96V21h19.52L829 29.96zM893.32 190l-.32.32.32.32c.427 0 .64-.107.64-.32-.213-.213-.427-.32-.64-.32zM893.32 174c-.213 0-.32.213-.32.64 0 .427.107.64.32.64.427 0 .64-.213.64-.64 0-.427-.213-.64-.64-.64zM893.64 158c-.427 0-.64.32-.64.96 0 .64.213.96.64.96.64 0 .96-.32.96-.96 0-.64-.32-.96-.96-.96zM893.96 142c-.64 0-.96.32-.96.96 0 .64.32.96.96.96.853 0 1.28-.32 1.28-.96 0-.64-.427-.96-1.28-.96zM893.28 126c-.853 0-1.28.427-1.28 1.28s.427 1.28 1.28 1.28 1.28-.427 1.28-1.28-.427-1.28-1.28-1.28zM893.28 110c-.853 0-1.28.533-1.28 1.6 0 .853.427 1.28 1.28 1.28 1.067 0 1.6-.427 1.6-1.28 0-1.067-.533-1.6-1.6-1.6zM893.6 94c-1.067 0-1.6.64-1.6 1.92 0 1.067.533 1.6 1.6 1.6 1.28 0 1.92-.533 1.92-1.6 0-1.28-.64-1.92-1.92-1.92zM893.92 78c-1.28 0-1.92.747-1.92 2.24 0 1.28.64 1.92 1.92 1.92 1.493 0 2.24-.64 2.24-1.92 0-1.493-.747-2.24-2.24-2.24zM893.92 62c-1.28 0-1.92.64-1.92 1.92 0 1.493.64 2.24 1.92 2.24 1.493 0 2.24-.747 2.24-2.24 0-1.28-.747-1.92-2.24-1.92zM893.24 46c-1.493 0-2.24.747-2.24 2.24 0 1.707.747 2.56 2.24 2.56 1.707 0 2.56-.853 2.56-2.56 0-1.493-.853-2.24-2.56-2.24zM893.56 30c-1.707 0-2.56.853-2.56 2.56 0 1.92.853 2.88 2.56 2.88 1.92 0 2.88-.96 2.88-2.88 0-1.707-.96-2.56-2.88-2.56zM893.56 14c-1.707 0-2.56.96-2.56 2.88s.853 2.88 2.56 2.88c1.92 0 2.88-.96 2.88-2.88s-.96-2.88-2.88-2.88zM878.32 190l-.32.32c0 .213.107.32.32.32.213 0 .32-.107.32-.32 0-.213-.107-.32-.32-.32zM878.64 174c-.427 0-.64.213-.64.64 0 .427.213.64.64.64.427 0 .64-.213.64-.64 0-.427-.213-.64-.64-.64zM878.96 158c-.64 0-.96.32-.96.96 0 .64.32.96.96.96.427 0 .64-.32.64-.96 0-.64-.213-.96-.64-.96zM878.96 142c-.64 0-.96.32-.96.96 0 .64.32.96.96.96.64 0 .96-.32.96-.96 0-.64-.32-.96-.96-.96zM878.28 126c-.853 0-1.28.427-1.28 1.28s.427 1.28 1.28 1.28 1.28-.427 1.28-1.28-.427-1.28-1.28-1.28zM878.6 110c-1.067 0-1.6.533-1.6 1.6 0 .853.533 1.28 1.6 1.28 1.067 0 1.6-.427 1.6-1.28 0-1.067-.533-1.6-1.6-1.6zM878.6 94c-1.067 0-1.6.64-1.6 1.92 0 1.067.533 1.6 1.6 1.6 1.067 0 1.6-.533 1.6-1.6 0-1.28-.533-1.92-1.6-1.92zM878.92 78c-1.28 0-1.92.747-1.92 2.24 0 1.28.64 1.92 1.92 1.92 1.28 0 1.92-.64 1.92-1.92 0-1.493-.64-2.24-1.92-2.24zM878.24 62c-1.493 0-2.24.64-2.24 1.92 0 1.493.747 2.24 2.24 2.24 1.493 0 2.24-.747 2.24-2.24 0-1.28-.747-1.92-2.24-1.92zM878.56 46c-1.707 0-2.56.747-2.56 2.24 0 1.707.853 2.56 2.56 2.56 1.493 0 2.24-.853 2.24-2.56 0-1.493-.747-2.24-2.24-2.24zM878.56 30c-1.707 0-2.56.853-2.56 2.56 0 1.92.853 2.88 2.56 2.88s2.56-.96 2.56-2.88c0-1.707-.853-2.56-2.56-2.56zM863.32 190l-.32.32.32.32c.213 0 .32-.107.32-.32 0-.213-.107-.32-.32-.32zM863.32 174c-.213 0-.32.213-.32.64 0 .427.107.64.32.64.427 0 .64-.213.64-.64 0-.427-.213-.64-.64-.64zM863.64 158c-.427 0-.64.32-.64.96 0 .64.213.96.64.96.64 0 .96-.32.96-.96 0-.64-.32-.96-.96-.96zM862.96 142c-.64 0-.96.32-.96.96 0 .64.32.96.96.96.853 0 1.28-.32 1.28-.96 0-.64-.427-.96-1.28-.96zM863.28 126c-.853 0-1.28.427-1.28 1.28s.427 1.28 1.28 1.28 1.28-.427 1.28-1.28-.427-1.28-1.28-1.28zM863.28 110c-.853 0-1.28.533-1.28 1.6 0 .853.427 1.28 1.28 1.28 1.067 0 1.6-.427 1.6-1.28 0-1.067-.533-1.6-1.6-1.6zM863.6 94c-1.067 0-1.6.64-1.6 1.92 0 1.067.533 1.6 1.6 1.6 1.28 0 1.92-.533 1.92-1.6 0-1.28-.64-1.92-1.92-1.92zM862.92 78c-1.28 0-1.92.747-1.92 2.24 0 1.28.64 1.92 1.92 1.92 1.28 0 1.92-.64 1.92-1.92 0-1.493-.64-2.24-1.92-2.24zM862.92 62c-1.28 0-1.92.64-1.92 1.92 0 1.493.64 2.24 1.92 2.24 1.493 0 2.24-.747 2.24-2.24 0-1.28-.747-1.92-2.24-1.92zM863.24 46c-1.493 0-2.24.747-2.24 2.24 0 1.707.747 2.56 2.24 2.56 1.707 0 2.56-.853 2.56-2.56 0-1.493-.853-2.24-2.56-2.24zM863.56 30c-1.707 0-2.56.853-2.56 2.56 0 1.92.853 2.88 2.56 2.88 1.92 0 2.88-.96 2.88-2.88 0-1.707-.96-2.56-2.88-2.56zM848.64 190.32l-.32-.32-.32.32c0 .213.107.32.32.32.213 0 .32-.107.32-.32zM848.64 174c-.427 0-.64.213-.64.64 0 .427.213.64.64.64.427 0 .64-.213.64-.64 0-.427-.213-.64-.64-.64zM847.96 158c-.64 0-.96.32-.96.96 0 .64.32.96.96.96.427 0 .64-.32.64-.96 0-.64-.213-.96-.64-.96zM847.96 142c-.64 0-.96.32-.96.96 0 .64.32.96.96.96.64 0 .96-.32.96-.96 0-.64-.32-.96-.96-.96zM848.28 126c-.853 0-1.28.427-1.28 1.28s.427 1.28 1.28 1.28 1.28-.427 1.28-1.28-.427-1.28-1.28-1.28zM848.6 110c-1.067 0-1.6.533-1.6 1.6 0 .853.533 1.28 1.6 1.28 1.067 0 1.6-.427 1.6-1.28 0-1.067-.533-1.6-1.6-1.6zM847.92 94c-1.28 0-1.92.64-1.92 1.92 0 1.067.64 1.6 1.92 1.6 1.067 0 1.6-.533 1.6-1.6 0-1.28-.533-1.92-1.6-1.92zM847.92 78c-1.28 0-1.92.747-1.92 2.24 0 1.28.64 1.92 1.92 1.92 1.28 0 1.92-.64 1.92-1.92 0-1.493-.64-2.24-1.92-2.24zM848.24 62c-1.493 0-2.24.64-2.24 1.92 0 1.493.747 2.24 2.24 2.24 1.493 0 2.24-.747 2.24-2.24 0-1.28-.747-1.92-2.24-1.92zM848.56 46c-1.707 0-2.56.747-2.56 2.24 0 1.707.853 2.56 2.56 2.56 1.493 0 2.24-.853 2.24-2.56 0-1.493-.747-2.24-2.24-2.24zM833.32 190l-.32.32.32.32c.213 0 .32-.107.32-.32 0-.213-.107-.32-.32-.32zM818.64 190.32l-.32-.32-.32.32c0 .213.107.32.32.32.213 0 .32-.107.32-.32zM802.32 190l-.32.32.32.32c.213 0 .32-.107.32-.32 0-.213-.107-.32-.32-.32zM802.64 174c-.427 0-.64.213-.64.64 0 .427.213.64.64.64.427 0 .64-.213.64-.64 0-.427-.213-.64-.64-.64zM802.64 158c-.427 0-.64.32-.64.96 0 .64.213.96.64.96.64 0 .96-.32.96-.96 0-.64-.32-.96-.96-.96zM802.96 142c-.64 0-.96.32-.96.96 0 .64.32.96.96.96.64 0 .96-.32.96-.96 0-.64-.32-.96-.96-.96zM802.28 126c-.853 0-1.28.427-1.28 1.28s.427 1.28 1.28 1.28 1.28-.427 1.28-1.28-.427-1.28-1.28-1.28zM802.6 110c-1.067 0-1.6.533-1.6 1.6 0 .853.533 1.28 1.6 1.28 1.067 0 1.6-.427 1.6-1.28 0-1.067-.533-1.6-1.6-1.6zM802.6 94c-1.067 0-1.6.64-1.6 1.92 0 1.067.533 1.6 1.6 1.6 1.067 0 1.6-.533 1.6-1.6 0-1.28-.533-1.92-1.6-1.92zM802.92 78c-1.28 0-1.92.747-1.92 2.24 0 1.28.64 1.92 1.92 1.92 1.28 0 1.92-.64 1.92-1.92 0-1.493-.64-2.24-1.92-2.24zM802.24 62c-1.493 0-2.24.64-2.24 1.92 0 1.493.747 2.24 2.24 2.24 1.493 0 2.24-.747 2.24-2.24 0-1.28-.747-1.92-2.24-1.92zM787.96 190.32l-.32-.32-.64.32c0 .213.213.32.64.32.213 0 .32-.107.32-.32zM787.64 174c-.427 0-.64.213-.64.64 0 .427.213.64.64.64.213 0 .32-.213.32-.64 0-.427-.107-.64-.32-.64zM786.96 158c-.64 0-.96.32-.96.96 0 .64.32.96.96.96.427 0 .64-.32.64-.96 0-.64-.213-.96-.64-.96zM787.28 142c-.853 0-1.28.32-1.28.96 0 .64.427.96 1.28.96.64 0 .96-.32.96-.96 0-.64-.32-.96-.96-.96zM787.28 126c-.853 0-1.28.427-1.28 1.28s.427 1.28 1.28 1.28 1.28-.427 1.28-1.28-.427-1.28-1.28-1.28zM787.6 110c-1.067 0-1.6.533-1.6 1.6 0 .853.533 1.28 1.6 1.28.853 0 1.28-.427 1.28-1.28 0-1.067-.427-1.6-1.28-1.6zM787.92 94c-1.28 0-1.92.64-1.92 1.92 0 1.067.64 1.6 1.92 1.6 1.067 0 1.6-.533 1.6-1.6 0-1.28-.533-1.92-1.6-1.92zM787.24 78c-1.493 0-2.24.747-2.24 2.24 0 1.28.747 1.92 2.24 1.92 1.28 0 1.92-.64 1.92-1.92 0-1.493-.64-2.24-1.92-2.24zM787.24 62c-1.493 0-2.24.64-2.24 1.92 0 1.493.747 2.24 2.24 2.24 1.28 0 1.92-.747 1.92-2.24 0-1.28-.64-1.92-1.92-1.92zM772.32 190l-.32.32c0 .213.107.32.32.32.213 0 .32-.107.32-.32 0-.213-.107-.32-.32-.32zM771.64 174c-.427 0-.64.213-.64.64 0 .427.213.64.64.64.427 0 .64-.213.64-.64 0-.427-.213-.64-.64-.64zM771.96 158c-.64 0-.96.32-.96.96 0 .64.32.96.96.96.64 0 .96-.32.96-.96 0-.64-.32-.96-.96-.96zM771.96 142c-.64 0-.96.32-.96.96 0 .64.32.96.96.96.64 0 .96-.32.96-.96 0-.64-.32-.96-.96-.96zM772.28 126c-.853 0-1.28.427-1.28 1.28s.427 1.28 1.28 1.28 1.28-.427 1.28-1.28-.427-1.28-1.28-1.28zM771.6 110c-1.067 0-1.6.533-1.6 1.6 0 .853.533 1.28 1.6 1.28 1.067 0 1.6-.427 1.6-1.28 0-1.067-.533-1.6-1.6-1.6zM771.6 94c-1.067 0-1.6.64-1.6 1.92 0 1.067.533 1.6 1.6 1.6 1.067 0 1.6-.533 1.6-1.6 0-1.28-.533-1.92-1.6-1.92zM771.92 78c-1.28 0-1.92.747-1.92 2.24 0 1.28.64 1.92 1.92 1.92 1.28 0 1.92-.64 1.92-1.92 0-1.493-.64-2.24-1.92-2.24zM969.32 190l-.32.32.32.32c.427 0 .64-.107.64-.32-.213-.213-.427-.32-.64-.32zM969.32 174c-.213 0-.32.213-.32.64 0 .427.107.64.32.64.427 0 .64-.213.64-.64 0-.427-.213-.64-.64-.64zM969.64 158c-.427 0-.64.32-.64.96 0 .64.213.96.64.96.64 0 .96-.32.96-.96 0-.64-.32-.96-.96-.96zM969.96 142c-.64 0-.96.32-.96.96 0 .64.32.96.96.96.853 0 1.28-.32 1.28-.96 0-.64-.427-.96-1.28-.96zM954.32 190l-.32.32c0 .213.107.32.32.32.213 0 .32-.107.32-.32 0-.213-.107-.32-.32-.32zM954.64 174c-.427 0-.64.213-.64.64 0 .427.213.64.64.64.427 0 .64-.213.64-.64 0-.427-.213-.64-.64-.64zM954.96 158c-.64 0-.96.32-.96.96 0 .64.32.96.96.96.64 0 .96-.32.96-.96 0-.64-.32-.96-.96-.96zM954.96 142c-.64 0-.96.32-.96.96 0 .64.32.96.96.96.64 0 .96-.32.96-.96 0-.64-.32-.96-.96-.96zM954.28 126c-.853 0-1.28.427-1.28 1.28s.427 1.28 1.28 1.28 1.28-.427 1.28-1.28-.427-1.28-1.28-1.28zM939.64 190.32l-.32-.32-.32.32c0 .213.107.32.32.32.213 0 .32-.107.32-.32zM924.32 190l-.32.32.32.32c.213 0 .32-.107.32-.32 0-.213-.107-.32-.32-.32zM909.64 190.32l-.32-.32-.32.32c0 .213.107.32.32.32.213 0 .32-.107.32-.32zM908.64 174c-.427 0-.64.213-.64.64 0 .427.213.64.64.64.427 0 .64-.213.64-.64 0-.427-.213-.64-.64-.64zM908.96 158c-.64 0-.96.32-.96.96 0 .64.32.96.96.96.427 0 .64-.32.64-.96 0-.64-.213-.96-.64-.96zM908.96 142c-.64 0-.96.32-.96.96 0 .64.32.96.96.96.64 0 .96-.32.96-.96 0-.64-.32-.96-.96-.96zM909.28 126c-.853 0-1.28.427-1.28 1.28s.427 1.28 1.28 1.28 1.28-.427 1.28-1.28-.427-1.28-1.28-1.28zM908.6 110c-1.067 0-1.6.533-1.6 1.6 0 .853.533 1.28 1.6 1.28 1.067 0 1.6-.427 1.6-1.28 0-1.067-.533-1.6-1.6-1.6zM908.92 94c-1.28 0-1.92.64-1.92 1.92 0 1.067.64 1.6 1.92 1.6 1.067 0 1.6-.533 1.6-1.6 0-1.28-.533-1.92-1.6-1.92zM908.92 78c-1.28 0-1.92.747-1.92 2.24 0 1.28.64 1.92 1.92 1.92 1.28 0 1.92-.64 1.92-1.92 0-1.493-.64-2.24-1.92-2.24zM909.24 62c-1.493 0-2.24.64-2.24 1.92 0 1.493.747 2.24 2.24 2.24 1.493 0 2.24-.747 2.24-2.24 0-1.28-.747-1.92-2.24-1.92zM908.56 46c-1.707 0-2.56.747-2.56 2.24 0 1.707.853 2.56 2.56 2.56 1.493 0 2.24-.853 2.24-2.56 0-1.493-.747-2.24-2.24-2.24zM928 176.92h6.4V15H928v161.92z" />
      <path d="M919.93 48.213v-5.44L894.65.853c-.425-.853-1.065-1.066-1.92-.64-.852.854-.96 1.494-.32 1.92l27.52 46.08zM971.16 126.72L943 80v5.44L968.92 128c.427.427.747.64.96.64.427 0 .747-.107.96-.32.64-.213.747-.747.32-1.6zM1119.32 190l-.32.32.32.32c.427 0 .64-.107.64-.32-.213-.213-.427-.32-.64-.32zM1119.32 174c-.213 0-.32.213-.32.64 0 .427.107.64.32.64.427 0 .64-.213.64-.64 0-.427-.213-.64-.64-.64zM1118.64 158c-.427 0-.64.32-.64.96 0 .64.213.96.64.96.64 0 .96-.32.96-.96 0-.64-.32-.96-.96-.96zM1118.96 142c-.64 0-.96.32-.96.96 0 .64.32.96.96.96.853 0 1.28-.32 1.28-.96 0-.64-.427-.96-1.28-.96zM1119.28 126c-.853 0-1.28.427-1.28 1.28s.427 1.28 1.28 1.28 1.28-.427 1.28-1.28-.427-1.28-1.28-1.28zM1119.28 110c-.853 0-1.28.533-1.28 1.6 0 .853.427 1.28 1.28 1.28 1.067 0 1.6-.427 1.6-1.28 0-1.067-.533-1.6-1.6-1.6zM1118.6 94c-1.067 0-1.6.64-1.6 1.92 0 1.067.533 1.6 1.6 1.6 1.28 0 1.92-.533 1.92-1.6 0-1.28-.64-1.92-1.92-1.92zM1118.92 78c-1.28 0-1.92.747-1.92 2.24 0 1.28.64 1.92 1.92 1.92 1.493 0 2.24-.64 2.24-1.92 0-1.493-.747-2.24-2.24-2.24zM1104.64 190.32l-.32-.32-.32.32c0 .213.107.32.32.32.213 0 .32-.107.32-.32zM1104.64 174c-.427 0-.64.213-.64.64 0 .427.213.64.64.64.427 0 .64-.213.64-.64 0-.427-.213-.64-.64-.64zM1104.28 142c-.853 0-1.28.32-1.28.96 0 .64.427.96 1.28.96.64 0 .96-.32.96-.96 0-.64-.32-.96-.96-.96zM1104.28 126c-.853 0-1.28.427-1.28 1.28s.427 1.28 1.28 1.28 1.28-.427 1.28-1.28-.427-1.28-1.28-1.28zM1104.6 110c-1.067 0-1.6.533-1.6 1.6 0 .853.533 1.28 1.6 1.28.853 0 1.28-.427 1.28-1.28 0-1.067-.427-1.6-1.28-1.6zM1103.92 94c-1.28 0-1.92.64-1.92 1.92 0 1.067.64 1.6 1.92 1.6 1.067 0 1.6-.533 1.6-1.6 0-1.28-.533-1.92-1.6-1.92zM1103.92 78c-1.28 0-1.92.747-1.92 2.24 0 1.28.64 1.92 1.92 1.92 1.28 0 1.92-.64 1.92-1.92 0-1.493-.64-2.24-1.92-2.24zM1089.32 190l-.32.32c0 .213.107.32.32.32.213 0 .32-.107.32-.32 0-.213-.107-.32-.32-.32zM1088.96 142c-.64 0-.96.32-.96.96 0 .64.32.96.96.96.64 0 .96-.32.96-.96 0-.64-.32-.96-.96-.96zM1089.28 126c-.853 0-1.28.427-1.28 1.28s.427 1.28 1.28 1.28 1.28-.427 1.28-1.28-.427-1.28-1.28-1.28zM1089.6 110c-1.067 0-1.6.533-1.6 1.6 0 .853.533 1.28 1.6 1.28 1.067 0 1.6-.427 1.6-1.28 0-1.067-.533-1.6-1.6-1.6zM1089.6 94c-1.067 0-1.6.64-1.6 1.92 0 1.067.533 1.6 1.6 1.6 1.067 0 1.6-.533 1.6-1.6 0-1.28-.533-1.92-1.6-1.92zM1074.32 190l-.32.32.32.32c.213 0 .32-.107.32-.32 0-.213-.107-.32-.32-.32zM1073.96 142c-.64 0-.96.32-.96.96 0 .64.32.96.96.96.853 0 1.28-.32 1.28-.96 0-.64-.427-.96-1.28-.96zM1074.28 126c-.853 0-1.28.427-1.28 1.28s.427 1.28 1.28 1.28 1.28-.427 1.28-1.28-.427-1.28-1.28-1.28zM1074.28 110c-.853 0-1.28.533-1.28 1.6 0 .853.427 1.28 1.28 1.28 1.067 0 1.6-.427 1.6-1.28 0-1.067-.533-1.6-1.6-1.6zM1074.6 94c-1.067 0-1.6.64-1.6 1.92 0 1.067.533 1.6 1.6 1.6 1.28 0 1.92-.533 1.92-1.6 0-1.28-.64-1.92-1.92-1.92zM1059.96 190.32l-.32-.32-.64.32c0 .213.213.32.64.32.213 0 .32-.107.32-.32zM1058.96 158c-.64 0-.96.32-.96.96 0 .64.32.96.96.96.427 0 .64-.32.64-.96 0-.64-.213-.96-.64-.96zM1059.28 142c-.853 0-1.28.32-1.28.96 0 .64.427.96 1.28.96.64 0 .96-.32.96-.96 0-.64-.32-.96-.96-.96zM1059.28 126c-.853 0-1.28.427-1.28 1.28s.427 1.28 1.28 1.28 1.28-.427 1.28-1.28-.427-1.28-1.28-1.28zM1059.6 110c-1.067 0-1.6.533-1.6 1.6 0 .853.533 1.28 1.6 1.28.853 0 1.28-.427 1.28-1.28 0-1.067-.427-1.6-1.28-1.6zM1044.64 190.32l-.32-.32-.32.32c0 .213.107.32.32.32.213 0 .32-.107.32-.32zM1043.96 158c-.64 0-.96.32-.96.96 0 .64.32.96.96.96.427 0 .64-.32.64-.96 0-.64-.213-.96-.64-.96zM1043.96 142c-.64 0-.96.32-.96.96 0 .64.32.96.96.96.64 0 .96-.32.96-.96 0-.64-.32-.96-.96-.96zM1044.28 126c-.853 0-1.28.427-1.28 1.28s.427 1.28 1.28 1.28 1.28-.427 1.28-1.28-.427-1.28-1.28-1.28zM1044.6 110c-1.067 0-1.6.533-1.6 1.6 0 .853.533 1.28 1.6 1.28 1.067 0 1.6-.427 1.6-1.28 0-1.067-.533-1.6-1.6-1.6zM1029.32 190l-.32.32.32.32c.213 0 .32-.107.32-.32 0-.213-.107-.32-.32-.32zM1028.96 142c-.64 0-.96.32-.96.96 0 .64.32.96.96.96.64 0 .96-.32.96-.96 0-.64-.32-.96-.96-.96zM1029.28 126c-.853 0-1.28.427-1.28 1.28s.427 1.28 1.28 1.28 1.28-.427 1.28-1.28-.427-1.28-1.28-1.28zM1014.32 190l-.32.32.32.32c.427 0 .64-.107.64-.32-.213-.213-.427-.32-.64-.32zM1014.28 126c-.853 0-1.28.427-1.28 1.28s.427 1.28 1.28 1.28 1.28-.427 1.28-1.28-.427-1.28-1.28-1.28zM999.64 190.32l-.32-.32-.32.32c0 .213.107.32.32.32.213 0 .32-.107.32-.32zM999.64 174c-.427 0-.64.213-.64.64 0 .427.213.64.64.64.213 0 .32-.213.32-.64 0-.427-.107-.64-.32-.64zM984.32 190l-.32.32c0 .213.107.32.32.32.213 0 .32-.107.32-.32 0-.213-.107-.32-.32-.32zM984.64 174c-.427 0-.64.213-.64.64 0 .427.213.64.64.64.427 0 .64-.213.64-.64 0-.427-.213-.64-.64-.64zM984.96 158c-.64 0-.96.32-.96.96 0 .64.32.96.96.96.64 0 .96-.32.96-.96 0-.64-.32-.96-.96-.96zM984.96 142c-.64 0-.96.32-.96.96 0 .64.32.96.96.96.64 0 .96-.32.96-.96 0-.64-.32-.96-.96-.96z" />
      <path d="M1054.72 171.48c-14.72 0-26.827-3.787-36.32-11.36-9.493-7.573-16.16-18.613-20-33.12l-6.4 2.56c4.267 15.573 11.68 27.467 22.24 35.68 10.56 8.213 24.16 12.32 40.8 12.32 8.107 0 16.373-1.387 24.8-4.16s16.373-6.827 23.84-12.16l.64-6.08-1.92-.64c-6.827 5.333-14.4 9.493-22.72 12.48-8.32 2.987-16.64 4.48-24.96 4.48zM1119.893 64.24c-.426-.853-.96-1.067-1.6-.64l-122.56 51.2c-.426-2.987-.746-5.973-.96-8.96-.213-2.987-.32-6.08-.32-9.28 0-24.747 5.387-43.627 16.16-56.64 10.774-13.013 26.507-19.52 47.2-19.52 7.68 0 15.147 1.227 22.4 3.68 7.254 2.453 13.867 5.92 19.84 10.4h1.92l1.92-6.08c-6.4-4.48-13.653-8-21.76-10.56-8.106-2.56-16.213-3.84-24.32-3.84-22.613 0-39.946 7.093-52 21.28-12.053 14.187-18.08 34.613-18.08 61.28 0 3.627.16 7.2.48 10.72.32 3.52.694 6.987 1.12 10.4l-20.48 8.64c-.853.427-1.066.96-.64 1.6 0 .64.32.96.96.96h.64l149.44-63.04c.854-.427 1.067-.96.64-1.6zM1158.8 75h-9.28c3.2 4.053 7.253 7.573 12.16 10.56s10.027 5.76 15.36 8.32c5.333 2.56 10.613 5.12 15.84 7.68 5.227 2.56 9.92 5.387 14.08 8.48 4.16 3.093 7.573 6.613 10.24 10.56s4 8.693 4 14.24c0 4.48-1.013 8.907-3.04 13.28-2.027 4.373-4.853 8.213-8.48 11.52-3.627 3.307-8.107 6.027-13.44 8.16s-11.307 3.2-17.92 3.2c-6.187 0-12.747-1.013-19.68-3.04s-13.173-5.173-18.72-9.44l-1.6.32-.32 6.4c5.76 4.053 12.267 7.04 19.52 8.96 7.253 1.92 14.187 2.88 20.8 2.88 7.253 0 13.92-1.173 20-3.52s11.253-5.44 15.52-9.28c4.267-3.84 7.627-8.32 10.08-13.44 2.453-5.12 3.68-10.56 3.68-16.32 0-9.173-2.56-16.587-7.68-22.24-5.12-5.653-11.307-10.453-18.56-14.4-7.253-3.947-14.827-7.627-22.72-11.04-7.893-3.413-14.507-7.36-19.84-11.84z" />
      <path d="M1248.56 62.96h-97.92c-1.067-2.56-1.6-5.227-1.6-8 0-4.053.907-8.16 2.72-12.32 1.813-4.16 4.427-7.893 7.84-11.2 3.413-3.307 7.627-5.973 12.64-8 5.013-2.027 10.827-3.04 17.44-3.04 4.267 0 9.013.533 14.24 1.6 5.227 1.067 10.507 2.88 15.84 5.44l1.92-.32 1.28-5.76c-6.187-2.987-12.107-4.96-17.76-5.92-5.653-.96-10.613-1.44-14.88-1.44-7.04 0-13.493 1.067-19.36 3.2-5.867 2.133-10.88 5.013-15.04 8.64-4.16 3.627-7.413 7.893-9.76 12.8-2.347 4.907-3.52 10.133-3.52 15.68 0 1.707.107 3.253.32 4.64.213 1.387.533 2.72.96 4h-24.64c-.853 0-1.28.427-1.28 1.28s.427 1.28 1.28 1.28h129.28c.853 0 1.28-.427 1.28-1.28s-.427-1.28-1.28-1.28zM1248.32 190l-.32.32.32.32c.427 0 .64-.107.64-.32-.213-.213-.427-.32-.64-.32zM1248.32 174c-.213 0-.32.213-.32.64 0 .427.107.64.32.64.427 0 .64-.213.64-.64 0-.427-.213-.64-.64-.64zM1248.64 158c-.427 0-.64.32-.64.96 0 .64.213.96.64.96.64 0 .96-.32.96-.96 0-.64-.32-.96-.96-.96zM1247.96 142c-.64 0-.96.32-.96.96 0 .64.32.96.96.96.853 0 1.28-.32 1.28-.96 0-.64-.427-.96-1.28-.96zM1248.28 126c-.853 0-1.28.427-1.28 1.28s.427 1.28 1.28 1.28 1.28-.427 1.28-1.28-.427-1.28-1.28-1.28zM1248.28 110c-.853 0-1.28.533-1.28 1.6 0 .853.427 1.28 1.28 1.28 1.067 0 1.6-.427 1.6-1.28 0-1.067-.533-1.6-1.6-1.6zM1248.6 94c-1.067 0-1.6.64-1.6 1.92 0 1.067.533 1.6 1.6 1.6 1.28 0 1.92-.533 1.92-1.6 0-1.28-.64-1.92-1.92-1.92zM1247.92 78c-1.28 0-1.92.747-1.92 2.24 0 1.28.64 1.92 1.92 1.92 1.493 0 2.24-.64 2.24-1.92 0-1.493-.747-2.24-2.24-2.24zM1232.32 190l-.32.32c0 .213.107.32.32.32.213 0 .32-.107.32-.32 0-.213-.107-.32-.32-.32zM1232.64 174c-.427 0-.64.213-.64.64 0 .427.213.64.64.64.427 0 .64-.213.64-.64 0-.427-.213-.64-.64-.64zM1231.96 158c-.64 0-.96.32-.96.96 0 .64.32.96.96.96.64 0 .96-.32.96-.96 0-.64-.32-.96-.96-.96zM1232.6 110c-1.067 0-1.6.533-1.6 1.6 0 .853.533 1.28 1.6 1.28 1.067 0 1.6-.427 1.6-1.28 0-1.067-.533-1.6-1.6-1.6zM1232.6 94c-1.067 0-1.6.64-1.6 1.92 0 1.067.533 1.6 1.6 1.6 1.067 0 1.6-.533 1.6-1.6 0-1.28-.533-1.92-1.6-1.92zM1231.92 78c-1.28 0-1.92.747-1.92 2.24 0 1.28.64 1.92 1.92 1.92 1.28 0 1.92-.64 1.92-1.92 0-1.493-.64-2.24-1.92-2.24zM1216.32 190l-.32.32.32.32c.427 0 .64-.107.64-.32-.213-.213-.427-.32-.64-.32zM1215.6 94c-1.067 0-1.6.64-1.6 1.92 0 1.067.533 1.6 1.6 1.6 1.28 0 1.92-.533 1.92-1.6 0-1.28-.64-1.92-1.92-1.92zM1215.92 78c-1.28 0-1.92.747-1.92 2.24 0 1.28.64 1.92 1.92 1.92 1.493 0 2.24-.64 2.24-1.92 0-1.493-.747-2.24-2.24-2.24zM1200.32 190l-.32.32c0 .213.107.32.32.32.213 0 .32-.107.32-.32 0-.213-.107-.32-.32-.32zM1199.96 142c-.64 0-.96.32-.96.96 0 .64.32.96.96.96.64 0 .96-.32.96-.96 0-.64-.32-.96-.96-.96zM1200.28 126c-.853 0-1.28.427-1.28 1.28s.427 1.28 1.28 1.28 1.28-.427 1.28-1.28-.427-1.28-1.28-1.28zM1199.92 78c-1.28 0-1.92.747-1.92 2.24 0 1.28.64 1.92 1.92 1.92 1.28 0 1.92-.64 1.92-1.92 0-1.493-.64-2.24-1.92-2.24zM1183.32 190l-.32.32.32.32c.427 0 .64-.107.64-.32-.213-.213-.427-.32-.64-.32zM1183.64 158c-.427 0-.64.32-.64.96 0 .64.213.96.64.96.64 0 .96-.32.96-.96 0-.64-.32-.96-.96-.96zM1183.96 142c-.64 0-.96.32-.96.96 0 .64.32.96.96.96.853 0 1.28-.32 1.28-.96 0-.64-.427-.96-1.28-.96zM1183.28 126c-.853 0-1.28.427-1.28 1.28s.427 1.28 1.28 1.28 1.28-.427 1.28-1.28-.427-1.28-1.28-1.28zM1183.28 110c-.853 0-1.28.533-1.28 1.6 0 .853.427 1.28 1.28 1.28 1.067 0 1.6-.427 1.6-1.28 0-1.067-.533-1.6-1.6-1.6zM1167.32 190l-.32.32c0 .213.107.32.32.32.213 0 .32-.107.32-.32 0-.213-.107-.32-.32-.32zM1167.96 158c-.64 0-.96.32-.96.96 0 .64.32.96.96.96.64 0 .96-.32.96-.96 0-.64-.32-.96-.96-.96zM1167.96 142c-.64 0-.96.32-.96.96 0 .64.32.96.96.96.64 0 .96-.32.96-.96 0-.64-.32-.96-.96-.96zM1167.28 126c-.853 0-1.28.427-1.28 1.28s.427 1.28 1.28 1.28 1.28-.427 1.28-1.28-.427-1.28-1.28-1.28zM1167.6 110c-1.067 0-1.6.533-1.6 1.6 0 .853.533 1.28 1.6 1.28 1.067 0 1.6-.427 1.6-1.28 0-1.067-.533-1.6-1.6-1.6zM1151.32 190l-.32.32.32.32c.427 0 .64-.107.64-.32-.213-.213-.427-.32-.64-.32zM1150.96 142c-.64 0-.96.32-.96.96 0 .64.32.96.96.96.853 0 1.28-.32 1.28-.96 0-.64-.427-.96-1.28-.96zM1151.28 126c-.853 0-1.28.427-1.28 1.28s.427 1.28 1.28 1.28 1.28-.427 1.28-1.28-.427-1.28-1.28-1.28zM1151.28 110c-.853 0-1.28.533-1.28 1.6 0 .853.427 1.28 1.28 1.28 1.067 0 1.6-.427 1.6-1.28 0-1.067-.533-1.6-1.6-1.6zM1151.6 94c-1.067 0-1.6.64-1.6 1.92 0 1.067.533 1.6 1.6 1.6 1.28 0 1.92-.533 1.92-1.6 0-1.28-.64-1.92-1.92-1.92zM1135.32 190l-.32.32c0 .213.107.32.32.32.213 0 .32-.107.32-.32 0-.213-.107-.32-.32-.32zM1134.96 142c-.64 0-.96.32-.96.96 0 .64.32.96.96.96.64 0 .96-.32.96-.96 0-.64-.32-.96-.96-.96zM1135.28 126c-.853 0-1.28.427-1.28 1.28s.427 1.28 1.28 1.28 1.28-.427 1.28-1.28-.427-1.28-1.28-1.28zM1135.6 110c-1.067 0-1.6.533-1.6 1.6 0 .853.533 1.28 1.6 1.28 1.067 0 1.6-.427 1.6-1.28 0-1.067-.533-1.6-1.6-1.6zM1135.6 94c-1.067 0-1.6.64-1.6 1.92 0 1.067.533 1.6 1.6 1.6 1.067 0 1.6-.533 1.6-1.6 0-1.28-.533-1.92-1.6-1.92zM1134.92 78c-1.28 0-1.92.747-1.92 2.24 0 1.28.64 1.92 1.92 1.92 1.28 0 1.92-.64 1.92-1.92 0-1.493-.64-2.24-1.92-2.24z" />
    </g>
  </svg>
