<?xml version="1.0" encoding="UTF-8"?>
  <svg xmlns="http://www.w3.org/2000/svg" viewBox="0 0 2649 372">
    <g fill="#000" fill-rule="evenodd">
      <path d="M1657.5 17.9l-34 16.8-14-2.9c-18.1-3.8-41-4.4-54.5-1.4-19 4.1-33.4 11.7-45.5 24-11.6 11.9-18.5 24.6-20.9 38.8-.6 3.6-1.4 7-1.8 7.3-.4.4-11.1 5.8-23.8 12.1l-23.2 11.3-25.4 21.1c-20.5 17-25.4 21.6-25.4 23.6 0 1.3.4 2.4.8 2.4s12.8-9.9 27.6-21.9l26.8-21.9L1568.1 67l124-60.1 12.2 11.2c175.3 161.2 252.2 231.4 253.6 231.6 1.1.2 7.3-9.3 21.6-33.4 31.8-53.4 29.7-49.5 29.3-54.4-.3-4.4-.6-4-25.8 38.3-14 23.6-25.7 42.8-26.1 42.8-.3 0-28.5-25.7-62.7-57.1l-62.2-57V42h98l.5-2.5c.3-1.4.7-3.6 1-4.9 1.2-6 9.1-5.6-104.4-5.6l-103.6-.1-15.2-13.9c-8.4-7.7-15.6-14-16-13.9-.4 0-16.1 7.6-34.8 16.8zm-67 23.6c9 .6 14.5 1.8 12.8 2.8-3.6 2.2-100.8 48.7-101.5 48.5-1-.4 3.4-10.8 7.4-17.5 4.1-6.9 14.6-17.7 22.1-22.6 5.9-3.9 15.4-7.9 23.5-9.8 5.2-1.3 21.2-2.7 25.2-2.3 1.4.2 6.1.6 10.5.9zM1819 79.2v37.1l-2.2-2c-4.6-4.1-75.4-68.6-77.3-70.4-1.9-1.9-1-1.9 38.8-1.9h40.7v37.2zM2078 42.7c-23 37.8-25.5 42.3-25.8 46.8-.3 3.3-.1 4.7.6 4 .6-.6 11.8-18.8 25-40.5 13.1-21.7 24.8-40.9 25.9-42.7l1.9-3.2 144 60.5 143.9 60.4H2519c70.9 0 126.1-.4 126.9-.9.8-.5 1.1-1.6.8-2.5-.6-1.5-9.5-1.6-96.1-1.6h-95.5l-1.3-2.3c-.6-1.2-1.4-6.6-1.6-12-.4-8.4-.1-10.8 2.2-18 6.5-20.7 20.8-35.5 42.9-44.5 9.1-3.7 19-5.3 32.2-5.3 18.7-.1 37.6 3.7 53.4 10.7 7.5 3.3 8.8 3.2 10-1.4 2.1-8.7 2.5-7.8-5.3-11.1-15.8-6.5-29.7-9.5-49.9-10.7-19.8-1.2-37.3 2.3-54.2 10.6-21.2 10.5-34.9 26.3-41.6 48-2.5 8-3.2 22-1.6 31.2l.8 4.8h-47.2l-86-36.2c-47.2-19.9-85.5-36.5-85.1-36.9 1.1-1.1 16.2-5.6 25.3-7.6 11.9-2.5 41.9-2.5 53.9 0 17.8 3.8 34.4 10.5 48.3 19.6 4.3 2.8 8.6 5.1 9.5 5.1 1.3 0 2.3-1.6 3.6-5.7l1.8-5.7-2.8-2.3c-4.6-3.6-23.2-12.9-32.7-16.2-19.6-6.9-33.3-9.2-54.2-9.2-24.4 0-45.1 4.1-61.9 12.2-3.3 1.6-6.5 2.9-7.1 2.9-1.1 0-92.3-37.8-97.9-40.6-1.6-.8-3.4-1.4-4.1-1.4-.6 0-12.6 18.8-26.5 41.7zM768.2 118.7c-39.1 63.2-71.8 115.7-72.6 116.8-1.4 1.8-1.5-9.5-1.6-102.3V29h-12v228.8l-33.1 53.4c-18.1 29.3-33.3 53.6-33.7 53.9-.4.4-23.4-7.4-51.2-17.2-27.8-9.8-50.9-18-51.3-18.2-.5-.1 3.6-3.3 9.1-7 16.5-11.1 30-27 39.3-46.2 12.9-26.7 18.2-54.6 18.3-95.5 0-30.5-3-51.1-10.6-73-18.8-53.3-60.5-81-122.3-81-56 0-96 22.2-118.2 65.6-12.5 24.3-18.1 50.3-19 87-.4 17.1-.2 25.5 1.2 37.4 1.5 13.8 5.7 34.1 8.4 41.2.6 1.6.9 2.8.8 2.8-.2 0-10.6-3.6-23.2-8.1-12.5-4.4-23.5-7.8-24.4-7.6-.9.2-43.4 19.2-94.6 42.2-51.1 23-93.8 42-94.7 42.2-1.7.5-1.8-2.5-1.8-52.6V224h27.3c37.1 0 50.9-1.8 69.8-9.1 22.2-8.5 41.9-28.5 49.8-50.5 5.5-15.1 7.4-26.9 7.4-45.4 0-18.1-1.3-26.4-6.3-40.1-7-19.3-22.9-35.1-43-42.8-16.1-6.3-17.1-6.4-69.2-6.8L69 28.9l-.2 153.7-.3 153.7-34 15.3C8.4 363.3.4 367.4.2 368.8c-.2 1.1.3 2.2 1 2.5.8.2 61.9-26.7 135.8-59.9 74-33.2 135.3-60.3 136.3-60.4 1.2 0 324.6 114 339.5 119.8.5-1 .9-2.4 1.7-3.4 4.3 1.7 4.5 1.7 6.2-1.1C643.8 328.4 842.7 8.1 843.2 8c.5 0 432.9 231.8 448.1 240.3 2.6 1.5 4.2 1.8 5.1 1.2.8-.6 12.2-10.1 25.5-21.3 21.8-18.3 24.1-20.5 24.1-23.3v-3.1l-3.7 3c-2.1 1.7-13.5 11.2-25.3 21.1-11.8 10-21.9 18.1-22.5 18-.5 0-33.8-17.7-74-39.3l-73-39.3-.3-68.1-.2-68.2h-12v64.5c0 35.5-.2 64.5-.4 64.5-.7 0-257-138.1-283.2-152.6L842.97.762S821.4 33 768.2 118.7zM151.8 41.1c30.6 3.3 50.5 15.2 62.2 37 6.7 12.6 10.1 34.4 8.1 52.4-5.2 47.2-31.2 74.5-76.6 80.4-5.6.8-19.3 1.1-36.5.9l-27.5-.3-.3-85.2L81 41l29.2-.3c16.1-.1 29.9-.3 30.6-.5.7-.1 5.6.3 11 .9zm317.7.4c43.9 6.6 72.9 30.4 87.8 72.1 3.2 9 7.2 27.7 8.8 41.3 1.5 13.7.6 54.1-1.5 67.6-7.7 47.7-28.7 80.9-61.5 97.5l-7.6 3.8-79.5-28.5c-43.7-15.6-79.8-28.9-80.2-29.6-1.1-1.7-6.4-18.1-8.2-25.2-5.2-20.6-7.1-59.5-4.1-84 5-41.5 18.5-70.6 42-90.7 14.5-12.4 37.1-21.8 59-24.7 11.4-1.4 34.1-1.2 45 .4zM1362 186v157h12V29h-12v157z" />
      <path d="M1687.5 31.4c-3 4.5 1.3 9.8 6.5 8.1 3.9-1.2 4.9-7.5 1.6-9.7-2.4-1.6-6.6-.8-8.1 1.6zM2024.7 29.7c-.4.3-.7 71-.7 157V343h13V29h-5.8c-3.2 0-6.2.3-6.5.7zM838.2 61.2c-3 3-.5 8.8 3.8 8.8 2.8 0 6-3 6-5.7 0-3.5-7.1-5.8-9.8-3.1zM870 61.9c-2.3 4.3.1 8.1 5.1 8.1 3.8 0 5.8-3.7 4.1-7.5-1.5-3.2-7.5-3.6-9.2-.6zM1624.9 62.6c-2 5.4 4.5 9.9 8.5 5.8 1.9-1.8 2.1-5.5.4-7.2-.7-.7-2.7-1.2-4.5-1.2-2.7 0-3.5.5-4.4 2.6zM1657.2 61.2c-3.2 3.2-.3 9.2 4.3 8.6 3.5-.4 5.7-4.7 3.9-7.6-1.3-2.1-6.5-2.7-8.2-1zM1688.2 61.2c-3 3-.5 8.8 3.8 8.8 2.8 0 6-3 6-5.7 0-3.5-7.1-5.8-9.8-3.1zM1718.2 61.2c-.7.7-1.2 2.4-1.2 3.8 0 3.4 1.7 5 5.2 5 3.7 0 5.7-3.8 4-7.5-1.3-2.7-5.8-3.5-8-1.3zM2100 61.9c-1.5 3-.2 7 2.5 7.7 3.6.9 6.4-.4 7.1-3.3 1-3.7-.7-5.8-4.9-6.1-2.8-.2-3.8.1-4.7 1.7zM2129.1 62.2c-1.4 3.9.8 7.8 4.4 7.8 3.1 0 4.7-2.3 4.3-6.2-.3-3-.6-3.3-4.1-3.6-3.1-.3-3.9 0-4.6 2zM2177.4 67.2c-18.6 20.4-30 48-35 84.8-2.4 17.5-2.4 55.1 0 71.5 3.4 23.7 7.6 39 15.1 55 6.4 13.9 12.9 23 24.4 34.5 15.6 15.5 30 23.3 53.5 28.8 10.2 2.4 12.9 2.6 33.1 2.7 19.4 0 23.2-.3 32.3-2.3 20.1-4.5 39.4-12.5 56.5-23.4 6.6-4.3 7.7-5.4 7.7-7.8 0-1.5.3-4.1.6-5.8.9-4.6-2.5-5.2-7.4-1.4-6.7 5.4-20.5 13.1-31.6 17.8-29 12.3-62.2 15.1-90.9 7.9-40.1-10.2-67.1-41.4-77-89-4.2-20.1-5.1-29.7-5.1-53 .1-24.7 1.7-39.5 6.3-57.6 6.2-24.5 15.5-42.2 30.5-57.6 3.3-3.4 5.8-6.4 5.5-6.6-.4-.5-11.7-4.7-12.4-4.7-.2 0-2.9 2.8-6.1 6.2zM908 203.4V343h141l.5-2.3c.3-1.2.6-3.8.8-5.7l.2-3.5-64.7-.3-64.8-.2-.2-130.2-.3-130.1-6.2-3.5-6.3-3.4v139.6zM838.7 91.7c-1.3 1.2-.7 6 .8 7.3 3.8 3.1 9.6-2.7 6.5-6.5-1.3-1.5-6.1-2.1-7.3-.8zM871.2 92.2c-2.8 2.8-.7 7.8 3.4 7.8 2.9 0 4.6-2.3 4.2-5.7-.2-2.3-.8-2.9-3.3-3.1-1.7-.2-3.6.3-4.3 1zM1563.1 92.8c-2.2 4.2 1.3 8.2 5.9 6.7 2.5-.8 3.7-5 2-7-1.8-2.1-6.7-1.9-7.9.3zM1594 93.1c-1.7 3.1 1.2 7.1 4.8 6.7 3.3-.4 5.3-4.8 3.2-7.2-1.9-2.3-6.7-2-8 .5zM1626 92.5c-2 2.5-.1 6.9 3.1 7.3 3.2.4 5.1-1.8 4.7-5.5-.2-2.3-.8-2.9-3.4-3.1-1.9-.2-3.6.3-4.4 1.3zM1657 92.5c-1.7 2-.5 6.2 2 7 3.1 1 5.9-.4 6.6-3.1.8-3.1-1.1-5.4-4.6-5.4-1.5 0-3.3.7-4 1.5zM1688.7 91.7c-1.3 1.2-.7 6 .8 7.3 3.8 3.1 9.6-2.7 6.5-6.5-1.3-1.5-6.1-2.1-7.3-.8zM1718 92.4c-1.5 1.9-.9 5.6 1.1 6.9.9.5 2.8.7 4.2.3 3.1-.7 4.6-4.8 2.7-7.1-1.6-1.9-6.4-1.9-8-.1zM1747.7 91.7c-1.2 1.2-.7 6 .7 7.3 3.9 3.1 9.8-2.6 6.6-6.4-1.2-1.6-6.1-2.2-7.3-.9zM2071 92.5c-1.9 2.3-.4 6.4 2.7 7.1 1.4.4 3.3.2 4.2-.3 2-1.3 2.6-5 1.1-6.9-1.6-1.8-6.4-1.8-8 .1zM2100.4 93.6c-.9 3.4.6 5.8 3.8 6.2 3.1.4 5-1.9 4.6-5.5-.3-2.4-.8-2.8-4-3.1-3.3-.3-3.8 0-4.4 2.4zM2129.7 91.6c-1.1 1.2-.8 5.9.5 7.2 1.6 1.6 5.3 1.5 6.7-.2.7-.8 1.1-2.7.9-4.3-.3-2.4-.8-2.8-3.8-3.1-2-.2-3.9 0-4.3.4z" />
      <path d="M2216.4 93.6c-.9 3.4.6 5.8 3.8 6.2 3.1.4 5-1.9 4.6-5.5-.3-2.4-.8-2.8-4-3.1-3.3-.3-3.8 0-4.4 2.4zM2245 93.1c-1.7 3.1 1.2 7.1 4.8 6.7 3.3-.4 5.3-4.8 3.2-7.2-1.9-2.3-6.7-2-8 .5zM1495.3 123.6c-2.9 1.3-5.3 2.7-5.3 3.1 0 .4 1.9 4.5 4.2 9.2 7.9 16.1 27.4 31.5 59.3 47 8.8 4.3 23 11.3 31.6 15.5 31.6 15.3 49.5 32.5 54 51.6 1.6 7 1.6 19 0 26-3.3 13.7-13 28.9-24.4 38.1-7.4 6-22.1 13.1-32.7 16-12.2 3.3-35.9 3.3-50.9 0-17.1-3.7-30.3-9.1-42.3-17.2-7.8-5.4-8.5-5.2-9.1 2.3-.4 5.5-.2 6.5 1.7 8 3.4 2.9 18.5 10.4 26.4 13.2 10 3.6 29.5 7.3 42.3 8.1 41.1 2.6 79-17 94.8-49 6.1-12.3 7.6-18.9 7.5-34 0-11.5-.4-13.9-2.8-20.9-8.1-23.7-28.2-41.1-68.7-59.7-35.9-16.4-53.5-26.3-64.7-36.4-5.5-4.9-11.7-13.6-13.4-18.7-.6-1.8-1.3-3.6-1.7-3.9-.3-.4-3 .4-5.8 1.7zM806.7 122.6c-1.2 1.3-.8 5.1.8 6.4 2.6 2.2 6.7-.3 6.3-3.8-.2-2.2-.9-2.8-3.3-3-1.7-.2-3.4 0-3.8.4zM838.6 123.8c-.9 2.6.2 5 2.5 5.7 2.7.9 5.1-1.3 4.7-4.4-.2-2.1-.9-2.7-3.5-2.9-2.4-.2-3.3.1-3.7 1.6zM871.7 122.7c-1.2 1.2-.7 5 .8 6.3 1.9 1.5 5.2.4 6-2.1.4-1.1.1-2.6-.5-3.4-1.3-1.5-5.1-2-6.3-.8zM968 123.5c-2.8 3.4 1.8 7.7 6 5.5 2.1-1.1 2.5-2.6 1.4-5.4-.8-2-5.7-2.1-7.4-.1zM1000.1 123.8c-.8 1.6-.7 2.5.8 4.3 1.7 2.1 2.2 2.2 4.5 1.1 2.2-1 2.7-1.8 2.4-4-.2-2.2-.8-2.8-3.5-3-2.3-.2-3.4.2-4.2 1.6zM1532.2 123.6c-2.2 4 1.7 7.6 5.8 5.4 1.5-.8 2-1.9 1.8-3.8-.2-2.2-.9-2.8-3.5-3-2.1-.2-3.4.2-4.1 1.4zM1563.7 122.6c-1.4 1.5-.6 5.4 1.3 6.4 3.1 1.6 6.2-.4 5.8-3.8-.2-2.2-.9-2.8-3.3-3-1.7-.2-3.4 0-3.8.4zM1594.6 123.6c-1.1 2.8-.7 4.3 1.4 5.4 4.2 2.2 8.8-2.1 6-5.5-1.7-2-6.6-1.9-7.4.1zM1626.7 122.7c-1.2 1.2-.7 5 .8 6.3 3.2 2.7 8.2-2.3 5.5-5.5-1.3-1.5-5.1-2-6.3-.8zM1657.7 122.6c-1.6 1.7-.6 5.5 1.8 6.6 3.2 1.4 5.7-.5 5.3-4.1-.2-2.1-.9-2.7-3.3-2.9-1.7-.2-3.4 0-3.8.4zM1688.6 123.8c-.9 2.6.2 5 2.5 5.7 2.7.9 5.1-1.3 4.7-4.4-.2-2.1-.9-2.7-3.5-2.9-2.4-.2-3.3.1-3.7 1.6zM1718.2 123.6c-2.2 4 1.7 7.6 5.8 5.4 1.5-.8 2-1.9 1.8-3.8-.2-2.2-.9-2.8-3.5-3-2.1-.2-3.4.2-4.1 1.4zM1748.1 123.4c-2.8 3.3 2.2 8.3 5.5 5.5.8-.7 1.4-2.4 1.2-3.8-.2-2-.9-2.7-2.9-2.9-1.4-.2-3.1.4-3.8 1.2zM1777.1 123.4c-.7.8-1 2.4-.6 3.5 1.5 4.7 8.9 3.2 8.3-1.7-.2-2.2-.9-2.8-3.4-3-1.8-.2-3.6.3-4.3 1.2zM2071.7 122.7c-1.5 1.4-.6 5.3 1.3 6.3 4.1 2.2 8-1.4 5.8-5.4-.9-1.6-5.8-2.2-7.1-.9zM2101.7 122.7c-1.2 1.2-.7 5 .8 6.3 3.2 2.7 8.2-2.3 5.5-5.5-1.3-1.5-5.1-2-6.3-.8zM2188.1 123.4c-2.8 3.3 2.2 8.3 5.5 5.5.8-.7 1.4-2.4 1.2-3.8-.2-2-.9-2.7-2.9-2.9-1.4-.2-3.1.4-3.8 1.2zM2216.7 122.7c-1.5 1.4-.6 5.3 1.3 6.3 4.2 2.2 8.8-2.1 6-5.5-1.3-1.5-6.1-2-7.3-.8zM2245.6 123.6c-1.1 2.8-.7 4.3 1.4 5.4 4.2 2.2 8.8-2.1 6-5.5-1.7-2-6.6-1.9-7.4.1zM2275.1 123.4c-2.8 3.3 2.2 8.3 5.5 5.5.8-.7 1.4-2.4 1.2-3.8-.2-2-.9-2.7-2.9-2.9-1.4-.2-3.1.4-3.8 1.2zM2303.6 123.8c-.9 2.6.2 5 2.5 5.7 2.7.9 5.1-1.3 4.7-4.4-.2-2.1-.9-2.7-3.5-2.9-2.4-.2-3.3.1-3.7 1.6zM2332.7 122.7c-1.5 1.4-.6 5.3 1.3 6.3 4.1 2.2 8-1.4 5.8-5.4-.9-1.6-5.8-2.2-7.1-.9zM2458.5 152.1c11.6 11.8 23.6 19.2 62.7 38.3 31.5 15.4 43.1 22.7 54.4 34 13 12.9 18.2 25.6 17.1 41.6-1.1 16.7-7.5 30-20.6 43-7.3 7.3-10.2 9.4-19.1 13.8-15.9 7.9-23.2 9.5-42.5 9.6-11.6 0-18.3-.4-24.5-1.7-17.7-3.7-32.6-9.6-44.8-17.7-3.5-2.3-6.9-3.9-7.7-3.6-2.3.8-2.1 11.8.3 13.9 7 6.3 30 15.2 48.6 18.8 16.3 3.2 39.5 3.2 52.6 0 20.3-5 36-13.9 49.2-28 6.4-6.8 9-10.7 12.8-18.6 6.8-14.1 8.4-21.5 7.7-36.7-.6-15.2-2.9-22.9-9.8-33.2-12.2-18.3-31.2-30.9-81.2-54.2-19.1-8.8-28.1-13.8-36.7-20.3-5.4-4.1-5.5-4.1-14.4-4.1h-9l4.9 5.1zM1819 246.9V343h13V162.2l-5.6-5.4c-3-2.9-6-5.5-6.5-5.6-.5-.2-.9 36.9-.9 95.7zM775.2 153.2c-1.8 1.8-1.5 5.6.7 6.3 3 .9 5.1-.5 5.1-3.5 0-3.6-3.4-5.2-5.8-2.8zM807.2 153.2c-2.7 2.7-.3 7.3 3.5 6.6 2.7-.5 2.5-7.2-.2-7.6-1.1-.1-2.6.3-3.3 1zM838.8 154.5c-1.5 3.4.8 6.1 4.6 5.1 2-.5 2.6-1.3 2.6-3.5 0-4.6-5.3-5.8-7.2-1.6zM872.3 152.7c-1.9.7-1.6 6 .3 6.7 2.7 1.1 4.3.7 5.4-1.4 2.1-3.8-1.4-7.1-5.7-5.3zM969.2 153.2c-2.1 2.1-1.4 5.7 1.2 6.4 3.3.8 4.6-.2 4.6-3.6 0-3.6-3.3-5.3-5.8-2.8zM1001.2 153.2c-2.5 2.5-.6 6.8 3 6.8.9 0 2.2-.9 2.8-2 2.2-4-2.6-8-5.8-4.8zM1032.9 154.4c-.9 2-.9 2.9.1 4.1 2.8 3.4 8.7-.5 6.4-4.3-1.8-2.8-5.2-2.7-6.5.2zM1065.4 153.4c-1.2 3.1 0 6.1 2.7 6.4 3.6.4 5.5-2.1 4.1-5.3-1.3-2.8-5.9-3.5-6.8-1.1zM1439.2 153.2c-.7.7-1.2 2.2-1.2 3.5 0 2.7 4.2 4.2 6.5 2.3 2.8-2.3 1.1-7-2.5-7-.9 0-2.1.5-2.8 1.2zM1470 153.9c-2.5 4.7 3.6 8.3 6.4 3.8.8-1.2.8-2.2 0-3.5-1.6-2.5-5.1-2.7-6.4-.3zM1596.3 152.7c-1.6.6-1.7 5.9-.2 6.8 2.1 1.4 5.9-.5 5.9-2.8 0-3.7-2.4-5.4-5.7-4zM1627.2 152.9c-.8.5-1.2 2.1-1 3.7.2 2.3.9 3 2.9 3.2 3.6.4 5.5-2.1 4.1-5.3-1.2-2.5-3.6-3.2-6-1.6zM1657.8 154.5c-.8 1.9-.8 2.8.2 4 3 3.6 8.2.3 6.2-4-.7-1.5-2-2.5-3.2-2.5-1.2 0-2.5 1-3.2 2.5zM1688.8 154.5c-1.5 3.4.8 6.1 4.6 5.1 2-.5 2.6-1.3 2.6-3.5 0-4.6-5.3-5.8-7.2-1.6zM1719.2 153.2c-2.5 2.5-.6 6.8 3 6.8 2.3 0 3.8-3 2.7-5.8-.9-2.4-3.8-2.9-5.7-1zM1747.8 154.5c-1.5 3.4.8 6.1 4.6 5.1 2-.5 2.6-1.3 2.6-3.5 0-4.6-5.3-5.8-7.2-1.6zM1778.2 153.2c-2.2 2.2-1.5 5.7 1.4 6.4 3.2.8 4.6-.6 4.2-4.2-.3-3.2-3.4-4.4-5.6-2.2zM2072.1 154.2c-1.2 3.1.4 6 3.1 5.6 2.9-.4 4.6-3.3 3.2-5.6-1.7-2.7-5.3-2.7-6.3 0zM2101.4 153.4c-1.2 3.1 0 6.1 2.7 6.4 3.6.4 5.5-2.1 4.1-5.3-1.3-2.8-5.9-3.5-6.8-1.1zM2188 154c-1.3 2.3.2 6 2.5 6 3 0 4.5-1.3 4.5-4 0-4.2-5.1-5.6-7-2zM2217.4 153.4c-1.2 3.1 0 6.1 2.5 6.1 3.1 0 5-2.8 3.5-5.3-1.4-2.2-5.2-2.8-6-.8zM2247.3 152.7c-1.6.6-1.7 5.9-.2 6.8 2.1 1.4 5.9-.5 5.9-2.8 0-3.7-2.4-5.4-5.7-4zM2274.8 154.5c-1.5 3.4.8 6.1 4.6 5.1 2-.5 2.6-1.3 2.6-3.5 0-4.6-5.3-5.8-7.2-1.6zM2303.9 154.4c-.9 2-.9 2.9.1 4.1 2.8 3.4 8.7-.5 6.4-4.3-1.8-2.8-5.2-2.7-6.5.2zM2333.1 154.2c-1.2 3.1.4 6 3.1 5.6 2.9-.4 4.6-3.3 3.2-5.6-1.7-2.7-5.3-2.7-6.3 0zM2362.7 152.7c-1.1 1-.8 6.1.4 6.8 2.1 1.4 5.9-.5 5.9-2.8 0-3.6-4.1-6.3-6.3-4zM2391.2 153.2c-3 3 0 7.5 4.3 6.4 4.1-1.1 2.9-7.6-1.5-7.6-.9 0-2.1.5-2.8 1.2zM2423.3 152.7c-2.1.8-1.6 6.1.6 6.8 2.8.8 5.1-.5 5.1-2.9 0-3.6-2.5-5.3-5.7-3.9zM2548.2 153.2c-2.7 2.7-.3 7.3 3.5 6.6 2.7-.5 2.5-7.2-.2-7.6-1.1-.1-2.6.3-3.3 1zM2579 153.5c-2.6 3.2 1.3 8.1 4.8 5.9 3.4-2.2 2.2-7.4-1.8-7.4-1 0-2.3.7-3 1.5zM2610.7 152.7c-1.1 1-.8 6.1.4 6.8 2.1 1.4 5.9-.5 5.9-2.8 0-3.6-4.1-6.3-6.3-4zM2641.4 153.4c-1.2 3.1 0 6.1 2.7 6.4 3.6.4 5.5-2.1 4.1-5.3-1.3-2.8-5.9-3.5-6.8-1.1zM774.9 185.1c-1.5 2.8.9 5.4 4 4.4 2.5-.8 2.9-5 .5-5.9-2.5-1-3.3-.7-4.5 1.5zM808.3 183.7c-1.8.7-1.6 5 .2 5.7 2.4.9 4.5-.4 4.5-2.9 0-1.8-2.2-4-3.3-3.4-.1 0-.8.3-1.4.6zM840.3 183.7c-1.8.7-1.6 5 .3 5.7 2 .8 5.4-1 5.4-2.9 0-1.2-3.1-3.7-4.2-3.4-.2 0-.9.3-1.5.6zM872.2 184.2c-1.8 1.8-1.5 3.6.7 4.8 2.5 1.3 5.1.3 5.1-1.9 0-1.9-1.9-4.1-3.5-4.1-.6 0-1.6.5-2.3 1.2zM969 184.9c-.7 1.5-.6 2.4.6 3.6 1.9 1.8 3.3 1.6 4.8-.7.7-1.2.6-2.1-.3-3.2-1.8-2.2-3.8-2-5.1.3zM1002.3 183.7c-1.8.7-1.6 5 .2 5.7 3.6 1.3 6.5-2.3 3.9-4.9-1.6-1.6-2.1-1.7-4.1-.8zM1034.3 183.7c-1.8.7-1.6 5 .3 5.7 2 .8 5.4-1 5.4-2.9 0-1.2-3.1-3.7-4.2-3.4-.2 0-.9.3-1.5.6zM1066.2 184.2c-2.6 2.6.1 6.5 3.8 5.3 3.2-1 2-6.5-1.5-6.5-.6 0-1.6.5-2.3 1.2zM1098.6 184.5c-2.6 2.6.3 6.2 3.9 4.9 2-.8 1.9-5-.1-5.8-2.1-.8-2-.8-3.8.9zM1409.9 184.6c-.9 1.1-1 2-.3 3.2 1.5 2.3 2.9 2.5 4.8.7 1.2-1.2 1.3-2.1.6-3.6-1.3-2.3-3.3-2.5-5.1-.3zM1439.1 184.9c-1.5 2.7.9 5.6 3.7 4.7 3.9-1.3 2.4-6.6-1.8-6.6-.5 0-1.4.8-1.9 1.9zM1471.2 184.2c-2.8 2.8-.3 6.6 3.3 5.2 2-.8 1.9-5-.1-5.8-2-.8-1.8-.8-3.2.6z" />
      <path d="M1502.2 184.2c-1.7 1.7-1.5 4.5.4 5.2 1.9.7 5.4-1 5.4-2.7 0-1.6-2-3.7-3.5-3.7-.6 0-1.6.5-2.3 1.2zM1627.2 184.2c-1.6 1.6-1.5 3.3.3 4.8 2.1 1.8 5.5.3 5.5-2.5 0-3.2-3.5-4.6-5.8-2.3zM1659.3 183.7c-1.8.7-1.6 5 .2 5.7 2.4.9 4.5-.4 4.5-2.9 0-1.8-2.2-4-3.3-3.4-.1 0-.8.3-1.4.6zM1690.3 183.7c-1.8.7-1.6 5 .3 5.7 2 .8 5.4-1 5.4-2.9 0-1.2-3.1-3.7-4.2-3.4-.2 0-.9.3-1.5.6zM1720.3 183.7c-1.9.7-1.6 5 .4 5.7 2.4 1 5.1-2 3.7-4.1-1.2-1.9-2.3-2.4-4.1-1.6zM1749.3 183.7c-.7.2-1.3 1.5-1.3 2.8 0 3.1 3.6 4.3 5.8 2.1 2.7-2.7-.8-6.5-4.5-4.9zM1779.3 183.7c-1.9.7-1.6 5 .4 5.7 2.4 1 5.1-2 3.7-4.1-1.2-1.9-2.3-2.4-4.1-1.6zM2073.2 184.2c-2.5 2.5 0 6.4 3.2 5.2 2.1-.8 2.1-5 0-5.8-2-.8-1.8-.8-3.2.6zM2102.2 184.2c-2.6 2.6.1 6.5 3.8 5.3 3.2-1 2-6.5-1.5-6.5-.6 0-1.6.5-2.3 1.2zM2189.2 184.2c-1.7 1.7-1.5 4.5.4 5.2 1.9.7 5.4-1 5.4-2.7 0-1.6-2-3.7-3.5-3.7-.6 0-1.6.5-2.3 1.2zM2218.2 184.2c-2.5 2.5 0 6.4 3.2 5.2 2.1-.8 2.1-5 0-5.8-2-.8-1.8-.8-3.2.6zM2246.9 184.6c-.9 1.1-1 2-.3 3.2 1.5 2.3 2.9 2.5 4.8.7 1.2-1.2 1.3-2.1.6-3.6-1.3-2.3-3.3-2.5-5.1-.3zM2276.3 183.7c-.7.2-1.3 1.5-1.3 2.8 0 3.1 3.6 4.3 5.8 2.1 2.7-2.7-.8-6.5-4.5-4.9zM2305.3 183.7c-1.8.7-1.6 5 .3 5.7 2 .8 5.4-1 5.4-2.9 0-1.2-3.1-3.7-4.2-3.4-.2 0-.9.3-1.5.6zM2334.2 184.2c-2.5 2.5 0 6.4 3.2 5.2 2.1-.8 2.1-5 0-5.8-2-.8-1.8-.8-3.2.6zM2363.3 183.7c-1.8.7-1.6 5 .2 5.7 2.4.9 4.5-.4 4.5-2.9 0-1.8-2.2-4-3.3-3.4-.1 0-.8.3-1.4.6zM2392.3 183.7c-1.8.7-1.6 5 .3 5.7 1.7.7 5.4-.9 5.4-2.4 0-1.1-2.9-4-3.8-3.9-.4 0-1.3.3-1.9.6zM2423 185.1c-.9 1.5-.8 2.4.1 3.5 2.6 3.2 6.9.1 4.9-3.5-.6-1.2-1.7-2.1-2.5-2.1s-1.9.9-2.5 2.1zM2453.9 185.1c-1.5 2.8.9 5.4 4 4.4 2.5-.8 2.9-5 .5-5.9-2.5-1-3.3-.7-4.5 1.5zM2580.3 183.7c-1.8.7-1.6 5 .2 5.7 2.4.9 4.5-.4 4.5-2.9 0-1.8-2.2-4-3.3-3.4-.1 0-.8.3-1.4.6zM2611.2 184.2c-2.5 2.5 0 6.4 3.2 5.2 2.1-.8 2.1-5 0-5.8-2-.8-1.8-.8-3.2.6zM2642.2 184.2c-2.6 2.6.1 6.5 3.8 5.3 3.2-1 2-6.5-1.5-6.5-.6 0-1.6.5-2.3 1.2zM1135 265v78h70c57.6 0 70.2-.2 70.6-1.3.3-.8.6-3.4.7-5.8l.2-4.4-64.7-.3-64.8-.2V192.4l-5.5-2.7c-3.1-1.5-5.8-2.7-6-2.7-.3 0-.5 35.1-.5 78zM742.9 215.6c-1.1 1.4-1.1 1.8.5 2.9 2.4 1.8 4.8.8 4.4-1.9-.4-2.6-3-3.2-4.9-1zM774.9 215.6c-1.1 1.4-1 1.8.5 3 1.3.9 2.4 1 3.7.3 2.2-1.1 2.4-2 .7-3.7-1.6-1.6-3.3-1.5-4.9.4zM808 215.6c-1.1 1.2-1.1 1.8.1 3 1.3 1.2 1.8 1.2 3.4 0 1.6-1.2 1.7-1.6.6-3-1.7-2-2.5-2-4.1 0zM840.7 214.7c-.4.3-.7 1.5-.7 2.5 0 1.3.7 1.8 2.5 1.8 2.9 0 3.6-3.4.9-4.4-1.9-.7-1.9-.7-2.7.1zM872.7 214.6c-1.2 1.2-.8 4.2.6 4.7 2.1.8 3.9-.8 3.5-2.9-.3-1.9-2.9-3-4.1-1.8zM969.7 214.7c-1.2 1.1-.7 4.1.7 4.6.8.3 2.2 0 3.2-.8 1.5-1.1 1.6-1.5.5-2.9-1.4-1.7-3.3-2.1-4.4-.9zM1001.7 214.7c-1.2 1.1-.8 4.1.6 4.6 1.7.6 4.7-1.1 4.7-2.7 0-2-3.9-3.4-5.3-1.9zM1034.7 214.7c-2.2 2.1.2 5.6 3.1 4.6 1.7-.7 1.5-4-.4-4.7-1.9-.7-1.9-.7-2.7.1zM1066.7 214.6c-1.2 1.2-.8 4.2.6 4.7 2.1.8 3.9-.8 3.5-2.9-.3-1.9-2.9-3-4.1-1.8zM1099.3 214.7c-1.9.7-1.6 3.1.6 4.2 2.6 1.4 5-1.2 3.1-3.4-1.3-1.6-1.7-1.7-3.7-.8zM1196.3 214.7c-.7.2-1.3 1.3-1.3 2.3 0 2.1 1.6 2.9 4.3 2.2 2.1-.5 2.2-3.8.1-4.6-.9-.3-1.6-.6-1.7-.5-.1 0-.8.3-1.4.6zM1409.9 215.6c-1.1 1.4-1.1 1.8.5 2.9 2.4 1.8 4.8.8 4.4-1.9-.4-2.6-3-3.2-4.9-1zM1439.7 214.7c-1.2 1.1-.7 4.1.7 4.6.8.3 2.2 0 3.2-.8 1.5-1.1 1.6-1.5.5-2.9-1.4-1.7-3.3-2.1-4.4-.9zM1471.3 214.7c-1.9.7-1.6 3.1.5 4.2 2.3 1.2 4.5-.1 4-2.5-.3-1.9-2.3-2.7-4.5-1.7zM1502.7 214.6c-1.2 1.2-.8 4.2.6 4.7 2.1.8 3.9-.8 3.5-2.9-.3-1.9-2.9-3-4.1-1.8zM1533.7 214.7c-1.2 1.1-.8 4.1.6 4.6 1.7.6 4.7-1.1 4.7-2.7 0-2-3.9-3.4-5.3-1.9zM1565 215.5c-1.9 2.2.5 4.8 3.1 3.4 2.3-1.2 2.5-3.5.3-4.3-2.1-.8-2-.8-3.4.9zM1690.7 214.7c-.4.3-.7 1.5-.7 2.5 0 1.3.7 1.8 2.5 1.8 2.9 0 3.6-3.4.9-4.4-1.9-.7-1.9-.7-2.7.1zM1719.7 214.7c-1.2 1.1-.8 4.1.6 4.6 1.7.6 4.7-1.1 4.7-2.7 0-2-3.9-3.4-5.3-1.9zM1749.1 215.9c-.9 1.6-.8 2.2.7 3 2.3 1.2 4.5-.1 4-2.5-.5-2.6-3.4-2.9-4.7-.5zM1778.7 214.7c-1.2 1.1-.7 4.1.7 4.6.8.3 2.2 0 3.2-.8 1.5-1.1 1.6-1.5.5-2.9-1.4-1.7-3.3-2.1-4.4-.9zM1866.9 215.6c-1.1 1.4-1.1 1.8.5 2.9 2.4 1.8 4.8.8 4.4-1.9-.4-2.6-3-3.2-4.9-1zM2073.3 214.7c-1.9.7-1.6 3.1.5 4.2 2.3 1.2 4.5-.1 4-2.5-.3-1.9-2.3-2.7-4.5-1.7zM2102.7 214.6c-1.2 1.2-.8 4.2.6 4.7 2.1.8 3.9-.8 3.5-2.9-.3-1.9-2.9-3-4.1-1.8zM2189.7 214.6c-1.2 1.2-.8 4.2.6 4.7 2.1.8 3.9-.8 3.5-2.9-.3-1.9-2.9-3-4.1-1.8zM2217.9 215.6c-1.1 1.4-1.1 1.8.5 2.9 2.4 1.8 4.8.8 4.4-1.9-.4-2.6-3-3.2-4.9-1zM2246.9 215.6c-1.1 1.4-1.1 1.8.5 2.9 2.4 1.8 4.8.8 4.4-1.9-.4-2.6-3-3.2-4.9-1zM2276.1 215.9c-.9 1.6-.8 2.2.7 3 2.3 1.2 4.5-.1 4-2.5-.5-2.6-3.4-2.9-4.7-.5zM2305.7 214.7c-2.2 2.1.2 5.6 3.1 4.6 1.7-.7 1.5-4-.4-4.7-1.9-.7-1.9-.7-2.7.1zM2334.3 214.7c-1.9.7-1.6 3.1.5 4.2 2.3 1.2 4.5-.1 4-2.5-.3-1.9-2.3-2.7-4.5-1.7zM2362.9 215.6c-1.1 1.4-1 1.8.6 3 1.3 1 2.2 1.1 3.2.3 1.8-1.5 1.6-3.6-.3-4.3-2.1-.8-2-.8-3.5 1zM2392 215.5c-1.6 1.9-.4 3.5 2.6 3.5 2.8 0 3.4-3.4.8-4.4-2.1-.8-2-.8-3.4.9zM2422.9 215.6c-1.1 1.4-1 1.8.5 3 1.3.9 2.4 1 3.7.3 2.2-1.1 2.4-2 .7-3.7-1.6-1.6-3.3-1.5-4.9.4zM2454.7 214.7c-1.2 1.1-.7 4.1.7 4.6.8.3 2.2 0 3.2-.8 1.5-1.1 1.6-1.5.5-2.9-1.4-1.7-3.3-2.1-4.4-.9zM2486.3 214.7c-1.9.7-1.6 4 .5 4.5 2.6.7 4.2-.1 4.2-2.2 0-1.4-2.3-3.4-3.3-2.9-.1 0-.8.3-1.4.6zM2517.7 214.7c-2.2 2.1.2 5.6 3.1 4.6 1.7-.7 1.5-4-.4-4.7-1.9-.7-1.9-.7-2.7.1zM2610.9 215.6c-1.1 1.4-1.1 1.8.5 2.9 2.4 1.8 4.8.8 4.4-1.9-.4-2.6-3-3.2-4.9-1zM2642.7 214.6c-1.2 1.2-.8 4.2.6 4.7 2.1.8 3.9-.8 3.5-2.9-.3-1.9-2.9-3-4.1-1.8zM743.4 246.5c-.4.9-.2 2.1.4 2.7 1.5 1.5 4.4.1 4-1.9-.4-2.3-3.6-2.9-4.4-.8zM775.4 246.5c-.4.9-.2 2.1.4 2.7 1.5 1.5 4.4.1 4-1.9-.4-2.3-3.6-2.9-4.4-.8zM807.4 246.5c-.4.9-.2 2.1.4 2.7 1.5 1.5 4.4.1 4-1.9-.4-2.3-3.6-2.9-4.4-.8zM840.3 246.6c-.8 2.1 1.3 4.2 2.8 2.7 1.3-1.3.5-4.3-1.1-4.3-.6 0-1.3.7-1.7 1.6zM872.7 246.3c-.3.8-.2 2 .3 2.7 1.1 1.8 4.2.4 3.8-1.7-.4-2.2-3.4-2.9-4.1-1zM969.4 246.5c-.4.9-.2 2.1.4 2.7 1.5 1.5 4.4.1 4-1.9-.4-2.3-3.6-2.9-4.4-.8zM1001.7 246.3c-.3.8-.2 2 .3 2.7 1.1 1.8 4.2.4 3.8-1.7-.4-2.2-3.4-2.9-4.1-1zM1034.4 246.5c-.7 1.8.3 3.5 2.1 3.5s2.6-2.5 1.2-3.9c-1.5-1.5-2.7-1.4-3.3.4zM1066.4 246.5c-.4.9-.2 2.1.4 2.7 1.5 1.5 4.4.1 4-1.9-.4-2.3-3.6-2.9-4.4-.8zM1099.4 246.5c-.7 1.8.3 3.5 2.1 3.5 1.5 0 2.4-1.9 1.8-3.8-.6-1.7-3.2-1.5-3.9.3z" />
      <path d="M1196.2 246.3c-1.5 1.7.1 4.2 2.3 3.3 1.8-.6 1.7-3.7-.1-4.3-.6-.2-1.6.2-2.2 1zM1228.4 246.5c-.7 1.8.3 3.5 2.1 3.5 1.5 0 2.4-1.9 1.8-3.8-.6-1.7-3.2-1.5-3.9.3zM1322.4 246.5c-.4.9-.2 2.1.4 2.7 1.5 1.5 4.4.1 4-1.9-.4-2.3-3.6-2.9-4.4-.8zM1410.4 246.5c-.4.9-.2 2.1.4 2.7 1.5 1.5 4.4.1 4-1.9-.4-2.3-3.6-2.9-4.4-.8zM1439.4 246.5c-.4.9-.2 2.1.4 2.7 1.5 1.5 4.4.1 4-1.9-.4-2.3-3.6-2.9-4.4-.8zM1471.4 246.5c-.7 1.8.3 3.5 2.1 3.5 1.5 0 2.4-1.9 1.8-3.8-.6-1.7-3.2-1.5-3.9.3zM1502.4 246.5c-.7 1.8.3 3.5 2.1 3.5 1.5 0 2.4-1.9 1.8-3.8-.6-1.7-3.2-1.5-3.9.3zM1533.6 246.6c-.4 1-.2 2.2.3 2.7 1.4 1.4 4.3 0 3.9-2-.4-2.4-3.4-2.8-4.2-.7zM1564.6 246.6c-.4 1-.2 2.2.3 2.7 1.4 1.4 4.3 0 3.9-2-.4-2.4-3.4-2.8-4.2-.7zM1596.4 246.5c-.4.9-.2 2.1.4 2.7 1.5 1.5 4.4.1 4-1.9-.4-2.3-3.6-2.9-4.4-.8zM1690.4 246.5c-.7 1.8.3 3.5 2.1 3.5s2.6-2.5 1.2-3.9c-1.5-1.5-2.7-1.4-3.3.4zM1719.6 246.6c-.4 1-.2 2.2.3 2.7 1.4 1.4 4.3 0 3.9-2-.4-2.4-3.4-2.8-4.2-.7zM1749.4 246.5c-.4.9-.2 2.1.4 2.7 1.5 1.5 4.4.1 4-1.9-.4-2.3-3.6-2.9-4.4-.8zM1778.4 246.5c-.4.9-.2 2.1.4 2.7 1.5 1.5 4.4.1 4-1.9-.4-2.3-3.6-2.9-4.4-.8zM1867.4 246.5c-.4.9-.2 2.1.4 2.7 1.5 1.5 4.4.1 4-1.9-.4-2.3-3.6-2.9-4.4-.8zM1896.4 246.5c-.4.9-.2 2.1.4 2.7 1.5 1.5 4.4.1 4-1.9-.4-2.3-3.6-2.9-4.4-.8zM1926.4 246.5c-.4.9-.2 2.1.4 2.7 1.5 1.5 4.4.1 4-1.9-.4-2.3-3.6-2.9-4.4-.8zM1985.4 246.5c-.7 1.8.3 3.5 2.1 3.5 1.5 0 2.4-1.9 1.8-3.8-.6-1.7-3.2-1.5-3.9.3zM2073.4 246.5c-.7 1.8.3 3.5 2.1 3.5 1.5 0 2.4-1.9 1.8-3.8-.6-1.7-3.2-1.5-3.9.3zM2102.4 246.5c-.4.9-.2 2.1.4 2.7 1.5 1.5 4.4.1 4-1.9-.4-2.3-3.6-2.9-4.4-.8zM2189.4 246.5c-.7 1.8.3 3.5 2.1 3.5 1.5 0 2.4-1.9 1.8-3.8-.6-1.7-3.2-1.5-3.9.3zM2218.4 246.5c-.4.9-.2 2.1.4 2.7 1.5 1.5 4.4.1 4-1.9-.4-2.3-3.6-2.9-4.4-.8zM2247.4 246.5c-.4.9-.2 2.1.4 2.7 1.5 1.5 4.4.1 4-1.9-.4-2.3-3.6-2.9-4.4-.8zM2276.4 246.5c-.4.9-.2 2.1.4 2.7 1.5 1.5 4.4.1 4-1.9-.4-2.3-3.6-2.9-4.4-.8zM2305.4 246.5c-.7 1.8.3 3.5 2.1 3.5s2.6-2.5 1.2-3.9c-1.5-1.5-2.7-1.4-3.3.4zM2334.4 246.5c-.7 1.8.3 3.5 2.1 3.5s2.6-1.5 1.9-3.4c-.8-2-3.3-2.1-4-.1zM2363.4 246.5c-.4.9-.2 2.1.4 2.7 1.5 1.5 4.4.1 4-1.9-.4-2.3-3.6-2.9-4.4-.8zM2391.7 246.3c-.3.8-.2 2 .3 2.7 1.1 1.8 4.2.4 3.8-1.7-.4-2.2-3.4-2.9-4.1-1zM2423.4 246.5c-.4.9-.2 2.1.4 2.7 1.5 1.5 4.4.1 4-1.9-.4-2.3-3.6-2.9-4.4-.8zM2454.4 246.5c-.4.9-.2 2.1.4 2.7 1.5 1.5 4.4.1 4-1.9-.4-2.3-3.6-2.9-4.4-.8zM2486.4 246.5c-.7 1.8.3 3.5 2.1 3.5s2.6-2.5 1.2-3.9c-1.5-1.5-2.7-1.4-3.3.4zM2517.4 246.5c-.7 1.8.3 3.5 2.1 3.5s2.6-2.5 1.2-3.9c-1.5-1.5-2.7-1.4-3.3.4zM2548.4 246.5c-.4.9-.2 2.1.4 2.7 1.5 1.5 4.4.1 4-1.9-.4-2.3-3.6-2.9-4.4-.8zM2642.4 246.5c-.4.9-.2 2.1.4 2.7 1.5 1.5 4.4.1 4-1.9-.4-2.3-3.6-2.9-4.4-.8zM241.4 277.1c-1 1.7 1.3 3.6 2.7 2.2 1.2-1.2.4-3.3-1.1-3.3-.5 0-1.2.5-1.6 1.1zM271.4 277.1c-.8 1.4 1.1 3.3 2.5 2.5.6-.4 1.1-1.4 1.1-2.2 0-1.6-2.6-1.9-3.6-.3zM302.4 277.1c-.8 1.4 1.1 3.3 2.5 2.5.6-.4 1.1-1.4 1.1-2.2 0-1.6-2.6-1.9-3.6-.3zM743.6 276.9c-.3.5.1 1.4.8 2 1.6 1.3 3.2-.2 2.1-1.9-.8-1.2-2.2-1.3-2.9-.1zM776.2 277.6c.4 2.1 2.2 2.3 2.6.1.2-1-.3-1.7-1.3-1.7s-1.5.6-1.3 1.6zM808.4 277.1c-1 1.7 1.3 3.6 2.7 2.2 1.2-1.2.4-3.3-1.1-3.3-.5 0-1.2.5-1.6 1.1zM840.4 277.1c-.8 1.4 1.1 3.3 2.5 2.5 1.6-1 1.3-3.6-.3-3.6-.8 0-1.8.5-2.2 1.1zM872.6 276.9c-.9 1.5 2.3 3.6 3.6 2.3.5-.5.7-1.5.4-2.1-.9-1.3-3.3-1.4-4-.2zM970.2 277.6c.4 2.1 2.2 2.3 2.6.1.2-1-.3-1.7-1.3-1.7s-1.5.6-1.3 1.6zM1002.4 277.1c-1 1.7 1.3 3.6 2.7 2.2 1.2-1.2.4-3.3-1.1-3.3-.5 0-1.2.5-1.6 1.1zM1034.4 277.1c-.8 1.4 1.1 3.3 2.5 2.5 1.6-1 1.3-3.6-.3-3.6-.8 0-1.8.5-2.2 1.1zM1067 277.4c0 .8.4 1.7.8 2 1.3.8 3.5-1.1 2.8-2.3-1-1.6-3.6-1.4-3.6.3zM1099.4 277.1c-1 1.7 1.3 3.6 2.7 2.2 1.2-1.2.4-3.3-1.1-3.3-.5 0-1.2.5-1.6 1.1zM1196.4 277.1c-1 1.7 1.3 3.6 2.7 2.2 1.2-1.2.4-3.3-1.1-3.3-.5 0-1.2.5-1.6 1.1zM1228.4 277.1c-1 1.7 1.3 3.6 2.7 2.2 1.2-1.2.4-3.3-1.1-3.3-.5 0-1.2.5-1.6 1.1zM1261 277.4c0 .8.4 1.7.8 2 1.3.8 3.5-1.1 2.8-2.3-1-1.6-3.6-1.4-3.6.3zM1293.2 277.7c.2 1 1 1.8 1.8 1.8 2.2 0 1.8-2.9-.3-3.3-1.4-.3-1.8.1-1.5 1.5zM1323.2 277.6c.4 2.1 2.2 2.3 2.6.1.2-1-.3-1.7-1.3-1.7s-1.5.6-1.3 1.6zM1411.2 277.6c.4 2.1 2.2 2.3 2.6.1.2-1-.3-1.7-1.3-1.7s-1.5.6-1.3 1.6zM1440.2 277.7c.4 2.1 3.3 2.5 3.3.3 0-.8-.8-1.6-1.8-1.8-1.4-.3-1.8.1-1.5 1.5zM1471.4 277.1c-1 1.7 1.3 3.6 2.7 2.2 1.2-1.2.4-3.3-1.1-3.3-.5 0-1.2.5-1.6 1.1zM1502.4 277.1c-.3.6-.1 1.6.4 2.1 1.3 1.3 4.5-.8 3.6-2.3-.7-1.2-3.1-1.1-4 .2zM1534.4 277.1c-1 1.7 1.3 3.6 2.7 2.2 1.2-1.2.4-3.3-1.1-3.3-.5 0-1.2.5-1.6 1.1zM1565.4 277.1c-1 1.7 1.3 3.6 2.7 2.2 1.2-1.2.4-3.3-1.1-3.3-.5 0-1.2.5-1.6 1.1zM1597.2 277.6c.4 2.1 2.2 2.3 2.6.1.2-1-.3-1.7-1.3-1.7s-1.5.6-1.3 1.6zM1690.4 277.1c-.8 1.4 1.1 3.3 2.5 2.5 1.6-1 1.3-3.6-.3-3.6-.8 0-1.8.5-2.2 1.1zM1720.4 277.1c-1 1.7 1.3 3.6 2.7 2.2 1.2-1.2.4-3.3-1.1-3.3-.5 0-1.2.5-1.6 1.1zM1749.4 277.1c-.7 1.2 1.5 3.1 2.8 2.3.4-.3.8-1.2.8-2 0-1.7-2.6-1.9-3.6-.3zM1779.2 277.6c.4 2.1 2.2 2.3 2.6.1.2-1-.3-1.7-1.3-1.7s-1.5.6-1.3 1.6zM1868.2 277.6c.4 2.1 2.2 2.3 2.6.1.2-1-.3-1.7-1.3-1.7s-1.5.6-1.3 1.6zM1897.2 277.7c.2 1 1 1.8 1.8 1.8 2.2 0 1.8-2.9-.3-3.3-1.4-.3-1.8.1-1.5 1.5zM1926.6 276.8c-.2.4-.1 1.4.4 2.2.7 1.1 1.2 1.2 2.1.3.6-.6.8-1.6.5-2.2-.8-1.3-2.3-1.4-3-.3zM1956 277.4c0 .8.4 1.7.8 2 1.3.8 3.5-1.1 2.8-2.3-1-1.6-3.6-1.4-3.6.3zM1985.4 277.1c-1 1.7 1.3 3.6 2.7 2.2 1.2-1.2.4-3.3-1.1-3.3-.5 0-1.2.5-1.6 1.1zM2073.4 277.1c-1 1.7 1.3 3.6 2.7 2.2 1.2-1.2.4-3.3-1.1-3.3-.5 0-1.2.5-1.6 1.1zM2103 277.4c0 .8.4 1.7.8 2 1.3.8 3.5-1.1 2.8-2.3-1-1.6-3.6-1.4-3.6.3zM2132.2 277.6c.4 2.1 2.2 2.3 2.6.1.2-1-.3-1.7-1.3-1.7s-1.5.6-1.3 1.6zM2218.6 276.8c-.2.4-.1 1.4.4 2.2.7 1.1 1.2 1.2 2.1.3.6-.6.8-1.6.5-2.2-.8-1.3-2.3-1.4-3-.3zM2248.2 277.6c.4 2.1 2.2 2.3 2.6.1.2-1-.3-1.7-1.3-1.7s-1.5.6-1.3 1.6zM2276.4 277.1c-.7 1.2 1.5 3.1 2.8 2.3.4-.3.8-1.2.8-2 0-1.7-2.6-1.9-3.6-.3zM2305.4 277.1c-.8 1.4 1.1 3.3 2.5 2.5 1.6-1 1.3-3.6-.3-3.6-.8 0-1.8.5-2.2 1.1zM2334.4 277.1c-1 1.7 1.3 3.6 2.7 2.2 1.2-1.2.4-3.3-1.1-3.3-.5 0-1.2.5-1.6 1.1zM2363.4 277.1c-.8 1.4 1.1 3.3 2.5 2.5 1.6-1 1.3-3.6-.3-3.6-.8 0-1.8.5-2.2 1.1zM2392.4 277.1c-.8 1.4 1.1 3.3 2.5 2.5.6-.4 1.1-1.4 1.1-2.2 0-1.6-2.6-1.9-3.6-.3zM2424.2 277.6c.4 2.1 2.2 2.3 2.6.1.2-1-.3-1.7-1.3-1.7s-1.5.6-1.3 1.6zM2455.2 277.7c.2 1 1 1.8 1.8 1.8 2.2 0 1.8-2.9-.3-3.3-1.4-.3-1.8.1-1.5 1.5zM2486.4 277.1c-1 1.7 1.3 3.6 2.7 2.2 1.2-1.2.4-3.3-1.1-3.3-.5 0-1.2.5-1.6 1.1zM2517.4 277.1c-.8 1.4 1.1 3.3 2.5 2.5.6-.4 1.1-1.4 1.1-2.2 0-1.6-2.6-1.9-3.6-.3zM2549.4 277.1c-.3.6-.1 1.6.5 2.2.9.9 1.4.8 2.1-.3.9-1.5.4-3-1-3-.5 0-1.2.5-1.6 1.1zM2643 277.4c0 .8.4 1.7.8 2 1.3.8 3.5-1.1 2.8-2.3-1-1.6-3.6-1.4-3.6.3zM687.8 294.2l-5.8 9.3V343h140.7l1-4.9c.5-2.8.7-5.5.3-6-.4-.7-21.4-1.2-65.1-1.3l-64.4-.3-.5-22.8-.5-22.7-5.7 9.2zM181.2 308.2c.6 1.8 2.8 2.1 2.8.4 0-.9-.7-1.6-1.6-1.6-.9 0-1.4.5-1.2 1.2zM211.5 307.9c-.7 1.2 1.2 2.4 2.5 1.6 1.1-.7.4-2.5-1-2.5-.5 0-1.1.4-1.5.9zM241.2 308.2c.6 1.8 2.8 2.1 2.8.4 0-.9-.7-1.6-1.6-1.6-.9 0-1.4.5-1.2 1.2zM272 308.6c0 .9.5 1.4 1.2 1.2 1.8-.6 2.1-2.8.4-2.8-.9 0-1.6.7-1.6 1.6zM303 308.6c0 .9.5 1.4 1.2 1.2 1.8-.6 2.1-2.8.4-2.8-.9 0-1.6.7-1.6 1.6zM334 308.5c0 .8.7 1.5 1.5 1.5s1.5-.7 1.5-1.5-.7-1.5-1.5-1.5-1.5.7-1.5 1.5zM365.2 308.2c.6 1.8 2.8 2.1 2.8.4 0-.9-.7-1.6-1.6-1.6-.9 0-1.4.5-1.2 1.2z" />
      <path d="M743.7 307.6c-.9 1 .2 2.4 1.9 2.4.8 0 1.4-.7 1.4-1.5 0-1.5-2.1-2.1-3.3-.9zM776.2 308.2c.6 1.8 2.8 2.1 2.8.4 0-.9-.7-1.6-1.6-1.6-.9 0-1.4.5-1.2 1.2zM809 308.5c0 .9.5 1.5 1.1 1.3.6-.2 1.1-.8 1.1-1.3s-.5-1.1-1.1-1.3c-.6-.2-1.1.4-1.1 1.3zM841 308.6c0 1.7 2.2 1.4 2.8-.4.2-.7-.3-1.2-1.2-1.2-.9 0-1.6.7-1.6 1.6zM873 308.5c0 .8.7 1.5 1.5 1.5s1.5-.7 1.5-1.5-.7-1.5-1.5-1.5-1.5.7-1.5 1.5zM970 308.5c0 .8.7 1.5 1.5 1.5s1.5-.7 1.5-1.5-.7-1.5-1.5-1.5-1.5.7-1.5 1.5zM1003 308.5c0 .9.5 1.5 1.1 1.3.6-.2 1.1-.8 1.1-1.3s-.5-1.1-1.1-1.3c-.6-.2-1.1.4-1.1 1.3zM1035 308.6c0 .9.5 1.4 1.2 1.2 1.8-.6 2.1-2.8.4-2.8-.9 0-1.6.7-1.6 1.6zM1067 308.5c0 .8.7 1.5 1.5 1.5s1.5-.7 1.5-1.5-.7-1.5-1.5-1.5-1.5.7-1.5 1.5zM1099.2 308.2c.6 1.8 2.8 2.1 2.8.4 0-.9-.7-1.6-1.6-1.6-.9 0-1.4.5-1.2 1.2zM1196 308.6c0 .9.7 1.4 1.7 1.2 2.5-.5 2.8-2.8.4-2.8-1.2 0-2.1.6-2.1 1.6zM1229 308.5c0 .8.7 1.5 1.5 1.5s1.5-.7 1.5-1.5-.7-1.5-1.5-1.5-1.5.7-1.5 1.5zM1261 308.5c0 .8.7 1.5 1.5 1.5s1.5-.7 1.5-1.5-.7-1.5-1.5-1.5-1.5.7-1.5 1.5zM1293.2 308.2c.6 1.8 2.8 2.1 2.8.4 0-.9-.7-1.6-1.6-1.6-.9 0-1.4.5-1.2 1.2zM1323 308.5c0 .9.5 1.5 1.1 1.3.6-.2 1.1-.8 1.1-1.3s-.5-1.1-1.1-1.3c-.6-.2-1.1.4-1.1 1.3zM1411 308.5c0 .8.7 1.5 1.5 1.5s1.5-.7 1.5-1.5-.7-1.5-1.5-1.5-1.5.7-1.5 1.5zM1440.2 308.2c.6 1.8 2.8 2.1 2.8.4 0-.9-.7-1.6-1.6-1.6-.9 0-1.4.5-1.2 1.2zM1534 308.5c0 1 .7 1.5 1.8 1.3 2.1-.4 1.9-2.2-.2-2.6-1-.2-1.6.3-1.6 1.3zM1566 308.5c0 .9.5 1.5 1.1 1.3.6-.2 1.1-.8 1.1-1.3s-.5-1.1-1.1-1.3c-.6-.2-1.1.4-1.1 1.3zM1659.3 308.2c.2.7 1 1.3 1.7 1.3s1.5-.6 1.8-1.3c.2-.7-.5-1.2-1.8-1.2s-2 .5-1.7 1.2zM1691 308.6c0 .9.5 1.4 1.2 1.2 1.8-.6 2.1-2.8.4-2.8-.9 0-1.6.7-1.6 1.6zM1720 308.5c0 1 .7 1.5 1.8 1.3 2.1-.4 1.9-2.2-.2-2.6-1-.2-1.6.3-1.6 1.3zM1750 308.6c0 .9.5 1.4 1.2 1.2 1.8-.6 2.1-2.8.4-2.8-.9 0-1.6.7-1.6 1.6zM1779.5 307.9c-.7 1.2 1.2 2.4 2.5 1.6 1.1-.7.4-2.5-1-2.5-.5 0-1.1.4-1.5.9zM1868 308.5c0 .9.5 1.5 1.1 1.3.6-.2 1.1-.8 1.1-1.3s-.5-1.1-1.1-1.3c-.6-.2-1.1.4-1.1 1.3zM1897.2 308.2c.6 1.8 2.8 2.1 2.8.4 0-.9-.7-1.6-1.6-1.6-.9 0-1.4.5-1.2 1.2zM1926.7 307.6c-.8.8.1 2.4 1.4 2.4.5 0 .9-.7.9-1.5 0-1.5-1.2-2-2.3-.9zM1956 308.5c0 .8.7 1.5 1.5 1.5s1.5-.7 1.5-1.5-.7-1.5-1.5-1.5-1.5.7-1.5 1.5zM1985.2 308.2c.6 1.8 2.8 2.1 2.8.4 0-.9-.7-1.6-1.6-1.6-.9 0-1.4.5-1.2 1.2zM2073.7 307.6c-.9 1 .2 2.4 1.9 2.4.8 0 1.4-.7 1.4-1.5 0-1.5-2.1-2.1-3.3-.9zM2103 308.5c0 .8.7 1.5 1.5 1.5s1.5-.7 1.5-1.5-.7-1.5-1.5-1.5-1.5.7-1.5 1.5zM2132 308.5c0 .8.7 1.5 1.5 1.5s1.5-.7 1.5-1.5-.7-1.5-1.5-1.5-1.5.7-1.5 1.5zM2248 308.6c0 1.7 2.2 1.4 2.8-.4.2-.7-.3-1.2-1.2-1.2-.9 0-1.6.7-1.6 1.6zM2277 308.6c0 1.7 2.2 1.4 2.8-.4.2-.7-.3-1.2-1.2-1.2-.9 0-1.6.7-1.6 1.6zM2393 308.6c0 1.7 2.2 1.4 2.8-.4.2-.7-.3-1.2-1.2-1.2-.9 0-1.6.7-1.6 1.6zM2486.2 308.2c.7 1.9 3.8 2.2 3.8.4 0-1-.9-1.6-2.1-1.6-1.2 0-1.9.5-1.7 1.2zM2518 308.5c0 .8.7 1.5 1.5 1.5s1.5-.7 1.5-1.5-.7-1.5-1.5-1.5-1.5.7-1.5 1.5zM2612 308.5c0 .8.7 1.5 1.5 1.5s1.5-.7 1.5-1.5-.7-1.5-1.5-1.5-1.5.7-1.5 1.5zM2643 308.5c0 .8.7 1.5 1.5 1.5s1.5-.7 1.5-1.5-.7-1.5-1.5-1.5-1.5.7-1.5 1.5zM91.5 339c.4.6 1.1.8 1.6.5 1.4-.9 1.1-1.5-.7-1.5-.8 0-1.2.5-.9 1zM151.5 339c.4.6 1.1.8 1.6.5 1.4-.9 1.1-1.5-.7-1.5-.8 0-1.2.5-.9 1zM182 339c0 .5.5 1 1 1 .6 0 1-.5 1-1 0-.6-.4-1-1-1-.5 0-1 .4-1 1zM212 339c0 .5.5 1 1 1 .6 0 1-.5 1-1 0-.6-.4-1-1-1-.5 0-1 .4-1 1zM242 339c0 .5.5 1 1 1 .6 0 1-.5 1-1 0-.6-.4-1-1-1-.5 0-1 .4-1 1zM272.5 339c.3.5.8 1 1.1 1 .2 0 .4-.5.4-1 0-.6-.5-1-1.1-1-.5 0-.7.4-.4 1zM303.5 339c.3.5.8 1 1.1 1 .2 0 .4-.5.4-1 0-.6-.5-1-1.1-1-.5 0-.7.4-.4 1zM334.5 339c.4.6 1.1.8 1.6.5 1.4-.9 1.1-1.5-.7-1.5-.8 0-1.2.5-.9 1zM365.5 339c.4.6 1.1.8 1.6.5 1.4-.9 1.1-1.5-.7-1.5-.8 0-1.2.5-.9 1zM397 339.1c0 .5.5.7 1 .4.6-.3 1-.8 1-1.1 0-.2-.4-.4-1-.4-.5 0-1 .5-1 1.1zM428 339c0 .5.5 1 1 1 .6 0 1-.5 1-1 0-.6-.4-1-1-1-.5 0-1 .4-1 1zM459 339c0 .5.5 1 1 1 .6 0 1-.5 1-1 0-.6-.4-1-1-1-.5 0-1 .4-1 1zM1100 339.1c0 .5.5.7 1 .4.6-.3 1-.8 1-1.1 0-.2-.4-.4-1-.4-.5 0-1 .5-1 1.1zM1323.5 339c.4.6 1.1.8 1.6.5 1.4-.9 1.1-1.5-.7-1.5-.8 0-1.2.5-.9 1zM1411.5 339c.4.6 1.1.8 1.6.5 1.4-.9 1.1-1.5-.7-1.5-.8 0-1.2.5-.9 1zM1441 339.1c0 .5.5.7 1 .4.6-.3 1-.8 1-1.1 0-.2-.4-.4-1-.4-.5 0-1 .5-1 1.1zM1660 339c0 .5.5 1 1 1 .6 0 1-.5 1-1 0-.6-.4-1-1-1-.5 0-1 .4-1 1zM1691.5 339c.3.5.8 1 1.1 1 .2 0 .4-.5.4-1 0-.6-.5-1-1.1-1-.5 0-.7.4-.4 1zM1721 339c0 .5.5 1 1 1 .6 0 1-.5 1-1 0-.6-.4-1-1-1-.5 0-1 .4-1 1zM1750.5 339c.3.5.8 1 1.1 1 .2 0 .4-.5.4-1 0-.6-.5-1-1.1-1-.5 0-.7.4-.4 1zM1779.5 339c.3.5 1 1 1.6 1 .5 0 .9-.5.9-1 0-.6-.7-1-1.6-1-.8 0-1.2.4-.9 1zM1868.5 339c.4.6 1.1.8 1.6.5 1.4-.9 1.1-1.5-.7-1.5-.8 0-1.2.5-.9 1zM1898 339.1c0 .5.5.7 1 .4.6-.3 1-.8 1-1.1 0-.2-.4-.4-1-.4-.5 0-1 .5-1 1.1zM1927 339c0 .5.5 1 1 1 .6 0 1-.5 1-1 0-.6-.4-1-1-1-.5 0-1 .4-1 1zM1957 339.1c0 .5.5.7 1 .4.6-.3 1-.8 1-1.1 0-.2-.4-.4-1-.4-.5 0-1 .5-1 1.1zM1986 339c0 .5.5 1 1 1 .6 0 1-.5 1-1 0-.6-.4-1-1-1-.5 0-1 .4-1 1zM2074 339c0 .5.5 1 1 1 .6 0 1-.5 1-1 0-.6-.4-1-1-1-.5 0-1 .4-1 1zM2104 339.1c0 .5.5.7 1 .4.6-.3 1-.8 1-1.1 0-.2-.4-.4-1-.4-.5 0-1 .5-1 1.1zM2132.5 339c.4.6 1.1.8 1.6.5 1.4-.9 1.1-1.5-.7-1.5-.8 0-1.2.5-.9 1zM2161.5 339c.3.5.8 1 1.1 1 .2 0 .4-.5.4-1 0-.6-.5-1-1.1-1-.5 0-.7.4-.4 1zM2364.5 339c.4.6 1.1.8 1.6.5 1.4-.9 1.1-1.5-.7-1.5-.8 0-1.2.5-.9 1zM2393.5 339c.3.5.8 1 1.1 1 .2 0 .4-.5.4-1 0-.6-.5-1-1.1-1-.5 0-.7.4-.4 1zM2612.5 339c.4.6 1.1.8 1.6.5 1.4-.9 1.1-1.5-.7-1.5-.8 0-1.2.5-.9 1zM2644 339.1c0 .5.5.7 1 .4.6-.3 1-.8 1-1.1 0-.2-.4-.4-1-.4-.5 0-1 .5-1 1.1z" />
    </g>
  </svg>
